<?xml version="1.0" encoding="UTF-8"?>
<svg version="1.1" xmlns="http://www.w3.org/2000/svg" width="2276" height="380">
<path d="M0 0 C22.44 0 44.88 0 68 0 C81.07763158 15.25723684 81.07763158 15.25723684 86.09765625 21.6015625 C93.6397558 31.11049293 101.45135389 40.41205582 109.16943359 49.77832031 C112.69314746 54.05490022 116.21533967 58.33273337 119.73779297 62.61035156 C122.71659562 66.22764791 125.69581299 69.84460131 128.67578125 73.4609375 C134.3328738 80.32681051 139.98381206 87.19738185 145.61328125 94.0859375 C150.4522859 99.99411667 155.31283528 105.88460244 160.16943359 111.77832031 C163.11367593 115.35162056 166.05678176 118.92585618 169 122.5 C172.465 126.7075 172.465 126.7075 176 131 C180.62 136.61 185.24 142.22 190 148 C190.33 99.16 190.66 50.32 191 0 C213.77 0 236.54 0 260 0 C260 85.14 260 170.28 260 258 C236.9 258 213.8 258 190 258 C175.30985915 240.16197183 175.30985915 240.16197183 169.38671875 232.9140625 C164.5477141 227.00588333 159.68716472 221.11539756 154.83056641 215.22167969 C151.88632412 211.6483795 148.9432036 208.07415572 146 204.5 C144.83333904 203.08332863 143.66667237 201.66666197 142.5 200.25 C135.5 191.75 128.5 183.25 121.5 174.75 C120.92209717 174.0482666 120.34419434 173.3465332 119.7487793 172.62353516 C118.5861588 171.21177011 117.42356102 169.79998636 116.26098633 168.38818359 C113.28260241 164.77136578 110.30378282 161.15490818 107.32421875 157.5390625 C101.67889473 150.68747267 96.03956628 143.83131137 90.421875 136.95703125 C87.2043566 133.02854507 83.97772741 129.10760002 80.75 125.1875 C80.15896484 124.46949219 79.56792969 123.75148438 78.95898438 123.01171875 C78.38986328 122.32078125 77.82074219 121.62984375 77.234375 120.91796875 C76.73131836 120.30719482 76.22826172 119.6964209 75.70996094 119.06713867 C73.48056853 116.37206935 71.23914404 113.68697285 69 111 C68.67 159.51 68.34 208.02 68 258 C45.56 258 23.12 258 0 258 C0 172.86 0 87.72 0 0 Z " fill="#000000" transform="translate(0,120)"/>
<path d="M0 0 C0.7007666 0.19835449 1.4015332 0.39670898 2.12353516 0.60107422 C37.40873294 10.84201017 67.13437704 35.87403856 84.88452148 67.77270508 C102.11061859 99.6976304 106.26593698 138.17973758 96.35717773 173.11010742 C90.72902144 191.78689629 81.82156904 209.24403564 69 224 C68.30261719 224.81855469 67.60523438 225.63710937 66.88671875 226.48046875 C43.96967119 252.73534562 12.48434182 268.65524662 -22 273 C-26.95569261 273.23690838 -31.91417426 273.2456842 -36.875 273.25 C-37.91711639 273.25101212 -37.91711639 273.25101212 -38.98028564 273.25204468 C-49.6302733 273.23560904 -59.63882202 272.66059476 -70 270 C-70.65967773 269.8443457 -71.31935547 269.68869141 -71.99902344 269.52832031 C-107.64995375 261.04322953 -137.96133067 237.22314944 -157.2578125 206.45703125 C-176.46550623 174.7303565 -181.51938672 135.6926738 -172.875 99.8125 C-164.11267532 66.16158591 -142.63530246 35.47772395 -113 17 C-112.0728418 16.41895508 -112.0728418 16.41895508 -111.12695312 15.82617188 C-78.87808798 -4.04698665 -36.6266764 -10.89908266 0 0 Z M-92.83203125 90.17578125 C-104.767975 105.72476744 -109.49863378 123.55543605 -108 143 C-105.41861114 162.28945047 -95.29115209 178.95684089 -80.125 190.9375 C-65.01596744 201.59005206 -46.81737967 207.029997 -28.37890625 204.50390625 C-8.38523002 200.88171516 7.81246291 191.33505769 20.13671875 175.203125 C31.12457994 158.7094158 35.37667876 139.59496082 31.75 120.1015625 C27.05146503 100.67116268 15.89870988 84.63315303 -1 74 C-32.42920113 55.83449843 -69.2454592 62.91554842 -92.83203125 90.17578125 Z " fill="#000000" transform="translate(570,4)"/>
<path d="M0 0 C24.42 0 48.84 0 74 0 C82.03626159 17.22056054 82.03626159 17.22056054 85.25 24.84765625 C85.62140106 25.7226326 85.99280212 26.59760895 86.37545776 27.49909973 C87.58607314 30.35254138 88.79301387 33.20752157 90 36.0625 C90.86704985 38.10771202 91.7344078 40.15279344 92.60205078 42.19775391 C93.97226226 45.427425 95.34223473 48.65719573 96.71121216 51.88739014 C101.5907542 63.40066489 106.49368958 74.90394309 111.39694214 86.40713501 C120.28580243 107.26245348 129.15774986 128.12487615 138 149 C142.96636932 139.58176292 147.1046352 129.88389917 151.20031738 120.06512451 C153.27243307 115.09930347 155.3593737 110.13971428 157.4453125 105.1796875 C157.88854858 104.12508331 158.33178467 103.07047913 158.78845215 101.98391724 C164.21468327 89.08823409 169.73150373 76.23140493 175.25 63.375 C176.01363358 61.59589737 176.01363358 61.59589737 176.79269409 59.78085327 C178.79620258 55.11353337 180.79982689 50.44626338 182.80412292 45.77928162 C185.81954838 38.75629966 188.82586405 31.72950418 191.82421875 24.69921875 C192.53674037 23.03009212 193.24930371 21.36098329 193.96191406 19.69189453 C194.93863812 17.40419159 195.9146622 15.1162071 196.88806152 12.8270874 C197.74490121 10.81221208 198.6045355 8.79855241 199.46484375 6.78515625 C199.935271 5.68051025 200.40569824 4.57586426 200.89038086 3.43774414 C202 1 202 1 203 0 C205.30053835 -0.09443335 207.60402173 -0.11742128 209.90649414 -0.11352539 C210.62840439 -0.11367142 211.35031464 -0.11381744 212.09410095 -0.1139679 C214.49114947 -0.11326869 216.88812123 -0.10547595 219.28515625 -0.09765625 C220.94282489 -0.0957921 222.60049407 -0.09436818 224.25816345 -0.09336853 C228.62954214 -0.08954312 233.00088781 -0.07971265 237.37225342 -0.06866455 C241.82954461 -0.05845092 246.28684111 -0.05387101 250.74414062 -0.04882812 C259.49610893 -0.0380904 268.24805036 -0.02101371 277 0 C276.42189954 3.27195216 275.64269346 6.16146647 274.32373047 9.20874023 C273.97671082 10.01718887 273.62969116 10.82563751 273.27215576 11.65858459 C272.89101624 12.53308762 272.50987671 13.40759064 272.1171875 14.30859375 C271.51405731 15.70887062 271.51405731 15.70887062 270.89874268 17.13743591 C270.02284112 19.1695812 269.14473842 21.20077882 268.26470947 23.23114014 C266.36675726 27.61012575 264.47927244 31.99359755 262.59115601 36.37683105 C261.59366632 38.69224795 260.59562947 41.00742919 259.59707642 43.3223877 C254.55877648 55.00684221 249.57264881 66.71330402 244.59307861 78.42288208 C242.15984636 84.14451346 239.72463846 89.86530345 237.2890625 95.5859375 C236.82627899 96.67292435 236.36349548 97.75991119 235.88668823 98.87983704 C231.82128388 108.42555917 227.735848 117.96259177 223.6428833 127.496521 C217.06075168 142.83124457 210.52805411 158.18698405 203.99255371 173.54162598 C197.39444876 189.04262758 190.7861792 204.5390892 184.13085938 220.015625 C178.70134882 232.65547201 173.36051429 245.3296935 168 258 C148.53 258 129.06 258 109 258 C86.01055014 205.1790021 86.01055014 205.1790021 78.0625 186.1875 C71.60317483 170.75605019 65.03599951 155.37244469 58.4375 140 C49.46851148 119.1016798 40.52488268 98.19288114 31.62646484 77.2644043 C30.68591463 75.05255366 29.74532206 72.84072102 28.8046875 70.62890625 C28.10489273 68.98334999 28.10489273 68.98334999 27.39096069 67.30455017 C24.03174993 59.41085978 20.65486946 51.52487898 17.27173424 43.64142609 C15.65055507 39.86207832 14.03224197 36.08150235 12.41403675 32.30088043 C11.11641928 29.27001895 9.81616381 26.24032961 8.51242065 23.21209717 C7.07765759 19.87912666 5.6494522 16.54341844 4.22265625 13.20703125 C3.79264313 12.21291733 3.36263 11.21880341 2.91958618 10.19456482 C2.53241425 9.28578079 2.14524231 8.37699677 1.74633789 7.44067383 C1.40711807 6.65090652 1.06789825 5.86113922 0.71839905 5.04743958 C0 3 0 3 0 0 Z " fill="#000000" transform="translate(738,120)"/>
<path d="M0 0 C1.01037827 0.00222061 2.02075653 0.00444122 3.06175232 0.00672913 C4.77341331 0.00684242 4.77341331 0.00684242 6.51965332 0.00695801 C7.76129745 0.01211929 9.00294159 0.01728058 10.2822113 0.02259827 C12.17785072 0.02472069 12.17785072 0.02472069 14.11178589 0.02688599 C17.47705394 0.0315487 20.84225495 0.04053972 24.20750427 0.05158997 C27.63930175 0.06180606 31.07110614 0.06638403 34.50291443 0.07142639 C41.2405633 0.08248071 47.9781803 0.09923742 54.71580505 0.12025452 C58.06762979 6.72175116 61.35894594 13.31043355 64.2118988 20.14369202 C64.5179454 20.86713303 64.823992 21.59057404 65.13931274 22.3359375 C65.80066327 23.90049452 66.46025295 25.46579686 67.11820984 27.03178406 C68.18999078 29.58256456 69.26651595 32.13129865 70.34422302 34.67958069 C71.52348184 37.46812066 72.70244184 40.25678327 73.88005066 43.04602051 C78.51253165 54.01725116 83.17988155 64.97360571 87.84815979 75.92964172 C89.34727804 79.44794607 90.84589441 82.96646389 92.34446716 86.48500061 C97.90366734 99.53524808 103.47621519 112.57962916 109.07182312 125.61430359 C115.65433733 140.94984427 122.18739776 156.30640881 128.72325134 171.66188049 C134.4830613 185.19346631 140.24980767 198.72192278 146.05000305 212.23625183 C148.33596908 217.56301203 150.61899634 222.89103271 152.90141296 228.21931458 C153.4532957 229.50750972 154.00534346 230.79563418 154.55754089 232.08369446 C156.42820066 236.44775866 158.29230685 240.81456134 160.15330505 245.18275452 C160.62091248 246.27297913 161.0885199 247.36320374 161.57029724 248.48646545 C161.98827576 249.47034241 162.40625427 250.45421936 162.8368988 251.46791077 C163.20226746 252.32392883 163.56763611 253.1799469 163.94407654 254.06190491 C164.71580505 256.12025452 164.71580505 256.12025452 164.71580505 258.12025452 C139.96580505 258.12025452 115.21580505 258.12025452 89.71580505 258.12025452 C79.65330505 234.49525452 79.65330505 234.49525452 74.77261353 223.03596497 C70.0705587 211.9961507 65.36809859 200.95650931 60.6650238 189.91712952 C49.33579882 163.32361044 38.01583035 136.72619522 26.71580505 110.12025452 C20.4301332 121.87363317 15.46144144 134.23105008 10.27830505 146.49525452 C9.26593478 148.88263393 8.25315063 151.26983788 7.23997498 153.65687561 C5.39676239 158.00027885 3.55454821 162.34409985 1.71403217 166.68864632 C-3.18139056 178.24382087 -8.0992777 189.78940858 -13.01860046 201.33442688 C-14.41889662 204.62132178 -15.81835059 207.90857389 -17.21754456 211.19593811 C-23.88185006 226.84807492 -30.58285498 242.4837946 -37.28419495 258.12025452 C-62.03419495 258.12025452 -86.78419495 258.12025452 -112.28419495 258.12025452 C-110.26798076 252.07161194 -108.19391787 246.31994532 -105.64356995 240.51478577 C-105.28915833 239.69899551 -104.9347467 238.88320526 -104.56959534 238.04269409 C-103.79971638 236.27117484 -103.02821679 234.50035919 -102.25526428 232.73017883 C-100.11018652 227.81588568 -97.97905732 222.89554392 -95.84669495 217.97572327 C-95.39477783 216.93371765 -94.94286072 215.89171204 -94.47724915 214.81813049 C-89.2769309 202.8162706 -84.15349176 190.78184348 -79.03419495 178.74525452 C-78.06553505 176.46863948 -77.09686638 174.19202817 -76.12818909 171.91542053 C-74.16686303 167.30518732 -72.20607101 162.69472739 -70.24562073 158.0841217 C-65.32461649 146.51128426 -60.39865443 134.94055764 -55.47169495 123.37025452 C-54.98962585 122.23807495 -54.50755676 121.10589539 -54.01087952 119.93940735 C-47.08713 103.67991538 -40.14061989 87.43037222 -33.16798401 71.19178772 C-29.05998919 61.62054896 -24.97143712 52.04121563 -20.89999008 42.45437241 C-20.09702351 40.56381897 -19.293761 38.67339156 -18.49040222 36.78300476 C-17.95746884 35.52888698 -17.42454036 34.27476711 -16.89161682 33.02064514 C-16.49693994 32.09187341 -16.49693994 32.09187341 -16.09428978 31.14433861 C-14.78076104 28.05268377 -13.46830291 24.96058156 -12.15797424 21.86756897 C-10.70081296 18.42878039 -9.24080658 14.99121227 -7.7802887 11.55384827 C-7.33954514 10.51127365 -6.89880157 9.46869904 -6.44470215 8.39453125 C-5.84015953 6.97377037 -5.84015953 6.97377037 -5.22340393 5.52430725 C-4.8713237 4.69390427 -4.51924347 3.86350128 -4.15649414 3.00793457 C-2.83550602 0.14927903 -2.83550602 0.14927903 0 0 Z " fill="#000000" transform="translate(1103.284194946289,119.87974548339844)"/>
<path d="M0 0 C136.29 0 272.58 0 413 0 C413 22.44 413 44.88 413 68 C276.71 68 140.42 68 0 68 C0 45.56 0 23.12 0 0 Z " fill="#000000" transform="translate(326,310)"/>
<path d="M0 0 C0.66 0 1.32 0 2 0 C6.95 10.89 11.9 21.78 17 33 C21.35186427 24.29627145 25.54162143 15.73148981 29.32226562 6.80273438 C31.78933398 1.10533301 31.78933398 1.10533301 34 0 C36.65079213 9.67399794 39.09302077 19.37044072 41.29248047 29.15649414 C41.7586767 31.22601731 42.23269057 33.29365822 42.70703125 35.36132812 C43.00827861 36.69260295 43.30907754 38.02397934 43.609375 39.35546875 C43.87717773 40.53778076 44.14498047 41.72009277 44.42089844 42.93823242 C45 46 45 46 45 50 C42.36 50 39.72 50 37 50 C35.02 42.08 33.04 34.16 31 26 C30.16855469 27.79308594 29.33710938 29.58617187 28.48046875 31.43359375 C27.38335219 33.76848283 26.2856665 36.10310455 25.1875 38.4375 C24.64029297 39.62150391 24.09308594 40.80550781 23.52929688 42.02539062 C22.99755859 43.15009766 22.46582031 44.27480469 21.91796875 45.43359375 C21.43094482 46.47572021 20.9439209 47.51784668 20.44213867 48.59155273 C19 51 19 51 16 52 C12.04 43.42 8.08 34.84 4 26 C3.67 26 3.34 26 3 26 C2.85377197 26.69150146 2.70754395 27.38300293 2.55688477 28.09545898 C1.89595285 31.21030709 1.22930546 34.32390423 0.5625 37.4375 C0.33240234 38.52611328 0.10230469 39.61472656 -0.13476562 40.73632812 C-0.35712891 41.77080078 -0.57949219 42.80527344 -0.80859375 43.87109375 C-1.01282959 44.82943115 -1.21706543 45.78776855 -1.42749023 46.77514648 C-2 49 -2 49 -3 50 C-5.67058851 50.14115161 -8.32432238 50.04247107 -11 50 C-7.82119109 33.21746847 -3.94881171 16.61430895 0 0 Z " fill="#000000" transform="translate(2102,328)"/>
<path d="M0 0 C5.64782626 5.26729896 9.61467517 9.8744528 10.20703125 17.75390625 C10.49351967 26.23184148 9.42858086 33.12181431 3.58984375 39.6171875 C-2.63597422 45.03227242 -9.44072726 47.34436408 -17.56640625 47.2109375 C-25.00638905 46.56605938 -31.13136608 43.69014039 -36 38 C-41.4045135 30.57050423 -42.1677238 22.98825931 -41 14 C-40.06661038 10.97240627 -38.80590388 8.58888318 -37 6 C-36.46375 5.113125 -35.9275 4.22625 -35.375 3.3125 C-25.91643663 -5.89715381 -10.86133674 -7.95049849 0 0 Z M-28.54296875 9.6953125 C-31.78167807 14.17688787 -32.72607507 18.10451747 -32.421875 23.60546875 C-31.55252104 28.53985742 -29.24378874 31.72166157 -25.75 35.3125 C-20.95467646 38.2550849 -16.96453317 39.30484135 -11.375 38.4375 C-6.11766538 36.19826488 -2.95317084 33.68393515 -0.125 28.6875 C1.6858089 22.75207082 1.86979235 18.35317307 -0.6875 12.75 C-3.17365324 8.26258155 -6.09424698 5.63525101 -11 4 C-18.22950221 3.14534954 -23.55383676 4.21358267 -28.54296875 9.6953125 Z " fill="#000000" transform="translate(2068,333)"/>
<path d="M0 0 C5.86187704 4.39640778 9.63943043 10.43974469 10.75 17.703125 C11.37392262 25.7734285 9.86250888 32.42535341 4.640625 38.69921875 C-1.05499962 44.56466704 -6.69844401 47.101185 -14.9375 47.765625 C-22.78463587 47.4929446 -28.65679481 44.70653347 -34.3359375 39.35546875 C-39.58022129 33.57726467 -41.40782173 27.55164813 -41.26953125 19.8828125 C-40.5801795 11.79268438 -37.1328132 5.78727696 -31.0625 0.453125 C-21.32064887 -5.94285316 -9.94465189 -6.17989082 0 0 Z M-26.0625 8.453125 C-26.805 9.071875 -27.5475 9.690625 -28.3125 10.328125 C-31.67872923 14.41568907 -32.26671143 18.22112984 -32 23.390625 C-31.34331344 28.46085611 -29.71822944 31.87686794 -26.0625 35.453125 C-21.13625657 39.00460282 -15.94234298 39.31499124 -10.0625 38.453125 C-5.07968938 35.96171969 -1.35162086 32.71085408 0.73046875 27.44921875 C2.18728299 22.37244184 2.04848026 18.4623918 0.1328125 13.53515625 C-2.22567934 9.42706425 -5.85928242 6.55473379 -10.0625 4.453125 C-16.5615929 3.74009502 -20.92927666 4.05321928 -26.0625 8.453125 Z " fill="#000000" transform="translate(1938.0625,332.546875)"/>
<path d="M0 0 C5.81833367 4.17402198 9.67607845 9.4913906 11.15625 16.546875 C12.06795352 25.2080584 10.89835527 32.24672217 5.59375 39.234375 C0.02852595 45.18152619 -6.30808619 47.82556085 -14.40625 48.109375 C-22.31126839 47.75638945 -27.90986532 45.60759333 -33.71875 40.234375 C-39.98462854 33.2997484 -40.41514366 27.34152714 -40.1796875 18.140625 C-39.39599372 9.75692409 -35.41184619 5.66910872 -29.2578125 0.2109375 C-20.59945713 -5.75744339 -8.85835716 -5.11944018 0 0 Z M-27.4609375 10.20703125 C-30.83447762 14.84803136 -31.61982347 19.1804546 -31.3203125 24.86328125 C-30.39820642 30.05579664 -28.23364512 33.78195245 -23.9765625 36.92578125 C-19.60787846 39.36510483 -15.87562926 40.27878471 -10.84375 39.546875 C-5.05430466 37.26285332 -1.4953864 33.68498417 1.40625 28.171875 C3.10746585 22.21761953 2.33567094 17.72890981 -0.56640625 12.41015625 C-3.20722764 8.5579489 -6.37742877 6.03564874 -10.84375 4.546875 C-17.51738992 3.89259658 -22.75264449 5.37363867 -27.4609375 10.20703125 Z " fill="#000000" transform="translate(1862.84375,251.453125)"/>
<path d="M0 0 C5.89781131 5.31769872 8.46756715 12.390873 9.0625 20.125 C8.56728205 27.55326919 6.05660224 34.46954077 0.8125 39.875 C-6.86099765 45.77533883 -13.62902329 46.55072779 -23.1875 45.875 C-29.64124453 44.51349576 -34.69412842 41.21746568 -38.6328125 35.9375 C-42.91014291 29.09377134 -44.14125197 21.69452853 -42.625 13.75 C-40.2956281 6.23738997 -35.8836905 0.66315836 -29.1171875 -3.25 C-19.4535185 -7.63190659 -8.53653313 -5.69102209 0 0 Z M-31.125 10.0625 C-33.6842132 14.11386463 -34.48309867 18.11163854 -34.1875 22.875 C-32.23521477 29.04011125 -29.62022224 33.44398692 -24 36.75 C-17.98814011 38.52399144 -13.45220445 38.02871736 -7.875 35.1875 C-3.56317273 31.47732305 -1.1511347 28.07438516 -0.25 22.4375 C0.15209951 16.74109033 -1.92373849 12.86091094 -4.9375 8.125 C-8.47928928 4.58321072 -12.21070049 3.16941695 -17.125 2.4375 C-22.83980456 3.25390065 -27.46955261 5.51960295 -31.125 10.0625 Z " fill="#000000" transform="translate(1438.1875,253.125)"/>
<path d="M0 0 C5.30146589 3.81282963 9.70858872 9.06003764 11.15625 15.55078125 C12.18580794 24.27914471 11.35438004 31.32315459 6.15625 38.55078125 C1.49262544 43.77935795 -3.83696366 47.07815901 -10.82421875 47.90234375 C-19.47052111 48.28752486 -26.1380294 46.74804475 -32.6875 40.90625 C-38.88966533 34.17203617 -40.49279551 27.87608957 -40.25390625 18.83984375 C-39.40758289 12.05313646 -36.48276019 6.73115068 -31.46875 2.11328125 C-21.95040831 -5.06615169 -10.50641764 -6.05483484 0 0 Z M-27.15625 11.05078125 C-30.68195303 15.27052031 -31.14617504 18.91794719 -31.05078125 24.27734375 C-30.49634493 30.3656822 -27.00330236 33.64115526 -22.5625 37.3515625 C-18.82283972 39.96082547 -15.25709612 39.84999116 -10.84375 39.55078125 C-5.40790241 37.66487494 -2.07563892 34.18280445 1.15625 29.55078125 C2.8659868 24.42157085 2.80242595 19.48930909 1.09375 14.36328125 C-1.98473225 9.8945167 -5.64549494 6.28353294 -10.84375 4.55078125 C-18.07234267 4.00522709 -22.37464237 5.66578028 -27.15625 11.05078125 Z " fill="#000000" transform="translate(1990.84375,251.44921875)"/>
<path d="M0 0 C6.38193371 3.68826039 10.81192965 8.64531172 13.08984375 15.7109375 C14.8290935 23.90409747 13.94329693 31.7343409 9.5625 38.9375 C4.69458706 44.54457542 -0.92371194 48.41029903 -8.4140625 49.28515625 C-17.27693072 49.68990082 -23.89020469 48.053732 -30.5390625 42.03515625 C-36.74546031 35.38179563 -37.92580859 29.15823628 -37.7421875 20.19140625 C-37.09802933 13.31212733 -34.65620941 8.75178256 -29.625 4.0625 C-20.88036226 -2.84031844 -10.37162086 -4.7471316 0 0 Z M-24.75 12.4375 C-28.27570303 16.65723906 -28.73992504 20.30466594 -28.64453125 25.6640625 C-28.09009493 31.75240095 -24.59705236 35.02787401 -20.15625 38.73828125 C-16.41658972 41.34754422 -12.85084612 41.23670991 -8.4375 40.9375 C-3.00165241 39.05159369 0.33061108 35.5695232 3.5625 30.9375 C5.2722368 25.8082896 5.20867595 20.87602784 3.5 15.75 C0.42151775 11.28123545 -3.23924494 7.67025169 -8.4375 5.9375 C-15.66609267 5.39194584 -19.96839237 7.05249903 -24.75 12.4375 Z " fill="#000000" transform="translate(1793.4375,250.0625)"/>
<path d="M0 0 C2.38961285 2.23544428 3.21005951 3.61176186 3.9375 6.8125 C4.03431046 11.94345451 2.65160631 14.49583163 -0.625 18.25 C-1.759375 19.425625 -2.89375 20.60125 -4.0625 21.8125 C-1.4225 24.7825 1.2175 27.7525 3.9375 30.8125 C5.5875 28.8325 7.2375 26.8525 8.9375 24.8125 C11.55937494 25.86124998 12.73121361 26.46181313 14.1875 28.9375 C14.435 29.55625 14.6825 30.175 14.9375 30.8125 C13.2875 33.1225 11.6375 35.4325 9.9375 37.8125 C10.370625 38.29460937 10.80375 38.77671875 11.25 39.2734375 C11.806875 39.90507812 12.36375 40.53671875 12.9375 41.1875 C13.7728125 42.12722656 13.7728125 42.12722656 14.625 43.0859375 C15.9375 44.8125 15.9375 44.8125 15.9375 46.8125 C14.35455218 46.86687607 12.77105744 46.90546271 11.1875 46.9375 C9.86492187 46.97230469 9.86492187 46.97230469 8.515625 47.0078125 C5.9375 46.8125 5.9375 46.8125 3.7734375 45.72265625 C3.16757813 45.42230469 2.56171875 45.12195313 1.9375 44.8125 C1.07125 45.245625 0.205 45.67875 -0.6875 46.125 C-5.54968101 48.55609051 -10.73477878 49.57654984 -16.12109375 48.33984375 C-20.52672118 46.60601618 -23.93382775 44.06984449 -26.0625 39.8125 C-26.77302492 35.01645677 -27.22283143 30.59360875 -24.5 26.4140625 C-22.5625 24.3125 -22.5625 24.3125 -20.59375 22.46875 C-18.72307235 20.82130318 -18.72307235 20.82130318 -19.0625 17.8125 C-19.3925 17.255625 -19.7225 16.69875 -20.0625 16.125 C-21.53418688 12.7217241 -21.530191 9.43170878 -21.0625 5.8125 C-17.35915891 -2.70518451 -7.94007007 -3.07880268 0 0 Z M-13.0625 7.8125 C-13.05327298 10.35963404 -13.05327298 10.35963404 -12.0625 12.8125 C-10.09491727 14.17270151 -10.09491727 14.17270151 -8.0625 14.8125 C-6.45835785 13.62726003 -6.45835785 13.62726003 -5.0625 11.8125 C-4.72875723 9.22833753 -4.72875723 9.22833753 -5.0625 6.8125 C-6.11560277 5.54246677 -6.11560277 5.54246677 -8.5 5.625 C-11.22984675 5.54410017 -11.22984675 5.54410017 -13.0625 7.8125 Z M-17.0625 29.8125 C-18.30535895 33.26124671 -18.30535895 33.26124671 -18.0625 36.8125 C-16.7094872 39.41564994 -16.7094872 39.41564994 -14.0625 40.8125 C-10.60500051 41.47926878 -10.60500051 41.47926878 -7.0625 40.8125 C-5.35176583 39.53619904 -3.6771587 38.20836275 -2.0625 36.8125 C-3.53805266 34.97625669 -5.01803431 33.1435715 -6.5 31.3125 C-7.32371094 30.2915625 -8.14742187 29.270625 -8.99609375 28.21875 C-9.67800781 27.4246875 -10.35992188 26.630625 -11.0625 25.8125 C-13.61397716 25.8125 -15.39600388 28.18766629 -17.0625 29.8125 Z " fill="#000000" transform="translate(1753.0625,331.1875)"/>
<path d="M0 0 C4.39787396 3.76960625 8.42965103 7.33436784 12.4375 11.4375 C15.59133476 14.63888272 18.77547744 17.75907119 22.1875 20.6875 C26.30297743 24.26324269 30.14493254 28.14493254 34 32 C34.33 22.1 34.66 12.2 35 2 C37.64 2 40.28 2 43 2 C43 18.83 43 35.66 43 53 C39.73054006 51.36527003 38.22388302 50.47154305 35.79199219 48.01904297 C35.19167175 47.41857147 34.59135132 46.81809998 33.97283936 46.19943237 C33.33727112 45.55354156 32.70170288 44.90765076 32.046875 44.2421875 C31.38665344 43.57913605 30.72643188 42.91608459 30.04620361 42.23294067 C27.94272176 40.11828168 25.84630858 37.99676788 23.75 35.875 C22.32337739 34.43834443 20.89629928 33.00214102 19.46875 31.56640625 C15.97297861 28.05031061 12.48685311 24.52503034 9 21 C8.67 30.9 8.34 40.8 8 51 C5.36 51 2.72 51 0 51 C0 34.17 0 17.34 0 0 Z " fill="#000000" transform="translate(1335,247)"/>
<path d="M0 0 C4.02004195 2.01002098 6.09275831 3.87454937 9.2109375 7.05078125 C9.7015567 7.54660202 10.1921759 8.04242279 10.69766235 8.55326843 C12.26162513 10.13498127 13.81873768 11.72321291 15.375 13.3125 C16.92493353 14.89023178 18.47636621 16.4664109 20.03091431 18.03959656 C21.44762679 19.47402266 22.85945287 20.91327 24.27099609 22.3527832 C26.23703613 24.25990183 28.16542755 25.99360159 30.27978516 27.71557617 C33 30 33 30 34 32 C34.33 22.1 34.66 12.2 35 2 C37.64 2 40.28 2 43 2 C43 18.5 43 35 43 52 C39.73054006 50.36527003 38.22388302 49.47154305 35.79199219 47.01904297 C35.19167175 46.41857147 34.59135132 45.81809998 33.97283936 45.19943237 C33.33727112 44.55354156 32.70170288 43.90765076 32.046875 43.2421875 C31.38665344 42.57913605 30.72643188 41.91608459 30.04620361 41.23294067 C27.94272176 39.11828168 25.84630858 36.99676788 23.75 34.875 C22.32337739 33.43834443 20.89629928 32.00214102 19.46875 30.56640625 C15.97297861 27.05031061 12.48685311 23.52503034 9 20 C8.67 29.9 8.34 39.8 8 50 C5.36 50 2.72 50 0 50 C0 33.5 0 17 0 0 Z " fill="#000000" transform="translate(1966,328)"/>
<path d="M0 0 C3.26945994 1.63472997 4.77611698 2.52845695 7.20800781 4.98095703 C8.10848846 5.88166428 8.10848846 5.88166428 9.02716064 6.80056763 C9.980513 7.76940384 9.980513 7.76940384 10.953125 8.7578125 C11.61334656 9.42086395 12.27356812 10.08391541 12.95379639 10.76705933 C15.05727824 12.88171832 17.15369142 15.00323212 19.25 17.125 C20.67662261 18.56165557 22.10370072 19.99785898 23.53125 21.43359375 C27.02702139 24.94968939 30.51314689 28.47496966 34 32 C34.33 22.1 34.66 12.2 35 2 C37.64 2 40.28 2 43 2 C43 18.5 43 35 43 52 C39.73054006 50.36527003 38.22388302 49.47154305 35.79199219 47.01904297 C35.19167175 46.41857147 34.59135132 45.81809998 33.97283936 45.19943237 C33.33727112 44.55354156 32.70170288 43.90765076 32.046875 43.2421875 C31.38665344 42.57913605 30.72643188 41.91608459 30.04620361 41.23294067 C27.94272176 39.11828168 25.84630858 36.99676788 23.75 34.875 C22.32337739 33.43834443 20.89629928 32.00214102 19.46875 30.56640625 C15.97297861 27.05031061 12.48685311 23.52503034 9 20 C8.67 29.9 8.34 39.8 8 50 C5.36 50 2.72 50 0 50 C0 33.5 0 17 0 0 Z " fill="#000000" transform="translate(1516,328)"/>
<path d="M0 0 C22 0 22 0 27 4 C29.24948916 7.96338566 29.40194509 11.49821502 29 16 C27.5 18.8125 27.5 18.8125 26 21 C26 24.12241798 28.06692692 25.65688111 30 28 C31.60089019 31.20178039 31.3573266 34.51768987 31 38 C29.0998496 43.20041163 27.57880173 44.33695862 23 48 C15.41 48 7.82 48 0 48 C0 32.16 0 16.32 0 0 Z M8 7 C8 11.29 8 15.58 8 20 C9.423125 19.896875 10.84625 19.79375 12.3125 19.6875 C13.11300781 19.62949219 13.91351562 19.57148438 14.73828125 19.51171875 C17.41497422 18.90611119 18.36507856 18.17817066 20 16 C20.58333333 13 20.58333333 13 20 10 C18.57951684 7.93243871 18.57951684 7.93243871 16 7 C13.27930412 6.76635245 10.74133849 6.86293308 8 7 Z M8 27 C8 31.62 8 36.24 8 41 C14.47747508 41.60407835 14.47747508 41.60407835 20.125 38.875 C22.28451447 36.13580824 22.28451447 36.13580824 22 32.875 C20.97354788 29.92395015 20.44447731 28.84826333 18 27 C15.48710325 26.63786432 15.48710325 26.63786432 12.8125 26.8125 C11.224375 26.874375 9.63625 26.93625 8 27 Z " fill="#000000" transform="translate(1335,330)"/>
<path d="M0 0 C2.97 0 5.94 0 9 0 C9.01458252 1.00377686 9.02916504 2.00755371 9.04418945 3.04174805 C9.10232052 6.7787575 9.17955165 10.51517369 9.26245117 14.25170898 C9.2956311 15.86651963 9.32368458 17.48144431 9.34643555 19.09643555 C9.38011025 21.42285592 9.43242963 23.74823783 9.48828125 26.07421875 C9.49467117 26.79212082 9.5010611 27.51002289 9.50764465 28.24967957 C9.63561223 32.64794232 10.30783006 35.49276568 13 39 C17.38806549 41.75821259 21.13304491 41.02049058 26 40 C28.64365079 38.12386073 28.95241281 37.14276157 30 34 C30.15322359 31.41669771 30.25706889 28.85507761 30.31640625 26.26953125 C30.33718735 25.51911057 30.35796844 24.76868988 30.37937927 23.99552917 C30.44469926 21.60127816 30.50367792 19.20691861 30.5625 16.8125 C30.60570193 15.18813987 30.64931676 13.56379067 30.69335938 11.93945312 C30.80036263 7.95974629 30.90167937 3.97993042 31 0 C33.97 0 36.94 0 40 0 C40.0745169 4.99874665 40.12877437 9.99716533 40.16479492 14.99633789 C40.17982126 16.69463742 40.20024823 18.39289855 40.22631836 20.09106445 C40.26297449 22.54127518 40.27978789 24.99097 40.29296875 27.44140625 C40.30845261 28.19273331 40.32393646 28.94406036 40.33988953 29.71815491 C40.3419149 36.1557438 38.84579276 40.69275905 34.75 45.8125 C28.95951473 50.41856783 22.12957816 50.70401791 15 50 C10.34223634 49.03436607 7.58275829 47.55742097 4.125 44.25 C0.31500665 38.42295134 -0.29489827 32.70519503 -0.1953125 25.87890625 C-0.1924826 25.13414536 -0.18965271 24.38938446 -0.18673706 23.62205505 C-0.17563917 21.26869899 -0.1505551 18.91573891 -0.125 16.5625 C-0.11495672 14.95638575 -0.10583324 13.35026546 -0.09765625 11.74414062 C-0.07573407 7.82927704 -0.04127761 3.9147054 0 0 Z " fill="#000000" transform="translate(1382,330)"/>
<path d="M0 0 C2.64 0 5.28 0 8 0 C8 5.94 8 11.88 8 18 C15.59 18 23.18 18 31 18 C31 12.06 31 6.12 31 0 C33.64 0 36.28 0 39 0 C39 16.17 39 32.34 39 49 C36.36 49 33.72 49 31 49 C31 41.41 31 33.82 31 26 C23.41 26 15.82 26 8 26 C8 33.59 8 41.18 8 49 C5.36 49 2.72 49 0 49 C0 32.83 0 16.66 0 0 Z " fill="#000000" transform="translate(1699,249)"/>
<path d="M0 0 C0.29296875 2.1640625 0.29296875 2.1640625 0.1875 4.625 C0.14689453 5.85089844 0.14689453 5.85089844 0.10546875 7.1015625 C0.07066406 7.72804688 0.03585938 8.35453125 0 9 C-4.70943396 7.16855346 -4.70943396 7.16855346 -6.8046875 5.953125 C-11.27173145 4.01369667 -16.24051666 4.50235965 -21 5 C-25.90140592 7.10060254 -28.19242196 10.03041042 -30.30859375 14.78515625 C-31.90269079 19.89167051 -31.60313446 24.3175723 -29.8125 29.3125 C-27.4417781 32.82770834 -24.78719238 35.10640381 -21 37 C-13.60628221 37.75928752 -8.29217271 36.92669425 -2 33 C-1.34 32.67 -0.68 32.34 0 32 C0.10824843 33.6026782 0.18570645 35.20745748 0.25 36.8125 C0.29640625 37.70582031 0.3428125 38.59914063 0.390625 39.51953125 C0 42 0 42 -1.81640625 43.75 C-8.40891897 47.52388922 -15.49836062 48.00177327 -22.7734375 46.3828125 C-30.58793274 43.96353041 -35.00588347 40.15116822 -39.08984375 33.125 C-42.17855995 26.29281669 -42.18317557 17.76315725 -39.875 10.6875 C-36.90806511 4.04984565 -32.50024715 -0.35287342 -25.875 -3.2890625 C-16.97308657 -6.66437134 -7.82878188 -5.21918792 0 0 Z " fill="#000000" transform="translate(2230,333)"/>
<path d="M0 0 C2.05102333 2.60524111 3.66050609 5.11597857 5.05297852 8.12255859 C5.42669083 8.92374115 5.80040314 9.72492371 6.18544006 10.55038452 C6.77620583 11.83642075 6.77620583 11.83642075 7.37890625 13.1484375 C7.79164291 14.03858551 8.20437958 14.92873352 8.62962341 15.84585571 C9.50006083 17.72594125 10.36817846 19.6071023 11.23413086 21.48925781 C12.55570138 24.36023071 13.88565469 27.22720459 15.21679688 30.09375 C16.06300281 31.92424681 16.90872208 33.75496869 17.75390625 35.5859375 C18.14977432 36.43924652 18.5456424 37.29255554 18.95350647 38.17172241 C20.88983086 42.39116299 22.64407689 46.54875093 24 51 C20.7 51 17.4 51 14 51 C10 42.375 10 42.375 10 39 C3.73 39 -2.54 39 -9 39 C-9.99 41.97 -10.98 44.94 -12 48 C-12.66 48.99 -13.32 49.98 -14 51 C-17.00798865 51.40721868 -19.97321367 51.12971941 -23 51 C-20.98962692 44.48511293 -18.47682933 38.35723917 -15.5859375 32.1875 C-15.17082916 31.29256836 -14.75572083 30.39763672 -14.32803345 29.47558594 C-13.45795257 27.60229013 -12.58555698 25.73006781 -11.7109375 23.85888672 C-10.36690048 20.98266714 -9.03055595 18.10296712 -7.6953125 15.22265625 C-6.84679798 13.39823103 -5.9978552 11.5740049 -5.1484375 9.75 C-4.74740814 8.88656982 -4.34637878 8.02313965 -3.93319702 7.13354492 C-3.56256134 6.34181885 -3.19192566 5.55009277 -2.81005859 4.734375 C-2.48379486 4.03538086 -2.15753113 3.33638672 -1.82138062 2.61621094 C-1 1 -1 1 0 0 Z M0 18 C-0.83790789 19.78953185 -1.67019396 21.58169695 -2.5 23.375 C-2.9640625 24.37273437 -3.428125 25.37046875 -3.90625 26.3984375 C-5.1291873 28.83692626 -5.1291873 28.83692626 -5 31 C-1.37 31 2.26 31 6 31 C4.35 26.71 2.7 22.42 1 18 C0.67 18 0.34 18 0 18 Z " fill="#000000" transform="translate(1529,247)"/>
<path d="M0 0 C0.29296875 2.1640625 0.29296875 2.1640625 0.1875 4.625 C0.14689453 5.85089844 0.14689453 5.85089844 0.10546875 7.1015625 C0.07066406 7.72804688 0.03585937 8.35453125 0 9 C-4.70943396 7.16855346 -4.70943396 7.16855346 -6.8046875 5.953125 C-11.27173145 4.01369667 -16.24051666 4.50235965 -21 5 C-25.93781067 7.11620457 -28.1923238 10.06661701 -30.3046875 14.859375 C-31.99055375 20.04956998 -31.56537454 24.28024264 -29.375 29.25 C-27.18232516 33.10425196 -25.15195603 35.18823737 -21 37 C-13.65779615 38.07940516 -8.23510526 36.89108073 -2 33 C-1.34 32.67 -0.68 32.34 0 32 C0 35.63 0 39.26 0 43 C-7.97027519 47.26317045 -15.85308405 48.41975377 -24.625 45.875 C-31.78960145 43.1867115 -36.09293427 38.8161684 -39.2734375 31.9296875 C-42.10835406 24.40039297 -41.82459872 16.51669158 -38.96484375 9.03125 C-35.80139455 2.37135694 -30.58735041 -1.16879289 -24 -4 C-15.31662371 -6.09190429 -7.44313908 -4.96209272 0 0 Z " fill="#000000" transform="translate(1881,333)"/>
<path d="M0 0 C3.1875 2.0625 3.1875 2.0625 4.1875 3.0625 C4.09812197 4.58769276 3.94212854 6.10931929 3.75 7.625 C3.64816406 8.45128906 3.54632812 9.27757812 3.44140625 10.12890625 C3.35761719 10.76699219 3.27382812 11.40507812 3.1875 12.0625 C2.26130859 11.52109375 2.26130859 11.52109375 1.31640625 10.96875 C-4.50740295 7.77762167 -9.14851781 5.8985415 -15.8125 7.0625 C-20.53128688 8.75414058 -23.01832817 10.92298618 -25.8125 15.0625 C-27.83908991 21.14226974 -27.88948969 27.8700567 -25.0625 33.625 C-21.09871718 37.91909805 -18.22239667 39.80429679 -12.3125 40.4375 C-6.59584512 40.4161692 -1.79178482 37.62536719 3.1875 35.0625 C3.1875 38.3625 3.1875 41.6625 3.1875 45.0625 C-3.93184205 49.61887891 -10.46992265 50.13926363 -18.8125 49.0625 C-26.99507932 46.51560445 -31.21702602 42.26895783 -35.625 35.125 C-38.22148646 28.37113349 -37.90861904 19.93951364 -35.96875 13.078125 C-32.88580197 6.20398412 -28.17523719 2.18887611 -21.48828125 -1.0703125 C-14.76153791 -3.25036654 -6.37327495 -3.17509169 0 0 Z " fill="#000000" transform="translate(1676.8125,249.9375)"/>
<path d="M0 0 C2 3 2 3 2 6 C-1.465 7.485 -1.465 7.485 -5 9 C-5.70125 8.319375 -6.4025 7.63875 -7.125 6.9375 C-9.8829449 4.64710348 -9.8829449 4.64710348 -13.3125 5.25 C-14.199375 5.4975 -15.08625 5.745 -16 6 C-16.85974801 8.29294488 -16.85974801 8.29294488 -17 11 C-14.28157837 14.29309984 -11.36012601 16.01042357 -7.5625 17.875 C-2.74351646 20.47132402 0.34788915 22.15303878 3 27 C3.73324697 31.92219256 3.6870659 36.30041594 1.8125 40.9375 C-2.76637177 46.14794029 -6.0067155 47.75055963 -12.75 48.3125 C-17.47520317 48.24184276 -21.16310705 46.71926587 -25 44 C-27.10515988 41.44829105 -27.96845697 40.10400611 -28.0625 36.8125 C-27 35 -27 35 -23.9375 33.75 C-22.968125 33.5025 -21.99875 33.255 -21 33 C-20.1646875 34.2065625 -20.1646875 34.2065625 -19.3125 35.4375 C-17.25227142 38.12607426 -17.25227142 38.12607426 -14.5625 38.875 C-11.85427084 39.00710874 -9.61945201 38.67357337 -7 38 C-6.44238487 33.94172951 -6.44238487 33.94172951 -7 30 C-9.31941557 27.7300653 -12.12896566 26.46868094 -15 25 C-25.27873647 18.81953788 -25.27873647 18.81953788 -27 14 C-27.54067915 9.13388763 -27.54236245 7.02661464 -25.25 2.6875 C-18.77021969 -5.05223759 -8.22676144 -6.48169083 0 0 Z " fill="#000000" transform="translate(1649,332)"/>
<path d="M0 0 C2 3 2 3 2 6 C-1.465 7.485 -1.465 7.485 -5 9 C-5.70125 8.319375 -6.4025 7.63875 -7.125 6.9375 C-9.8829449 4.64710348 -9.8829449 4.64710348 -13.3125 5.25 C-14.199375 5.4975 -15.08625 5.745 -16 6 C-16.85974801 8.29294488 -16.85974801 8.29294488 -17 11 C-14.28157837 14.29309984 -11.36012601 16.01042357 -7.5625 17.875 C-2.74351646 20.47132402 0.34788915 22.15303878 3 27 C3.73324697 31.92219256 3.6870659 36.30041594 1.8125 40.9375 C-2.76637177 46.14794029 -6.0067155 47.75055963 -12.75 48.3125 C-17.47520317 48.24184276 -21.16310705 46.71926587 -25 44 C-27.10515988 41.44829105 -27.96845697 40.10400611 -28.0625 36.8125 C-27 35 -27 35 -23.9375 33.75 C-22.968125 33.5025 -21.99875 33.255 -21 33 C-20.1646875 34.2065625 -20.1646875 34.2065625 -19.3125 35.4375 C-17.25227142 38.12607426 -17.25227142 38.12607426 -14.5625 38.875 C-11.85427084 39.00710874 -9.61945201 38.67357337 -7 38 C-6.44238487 33.94172951 -6.44238487 33.94172951 -7 30 C-9.31941557 27.7300653 -12.12896566 26.46868094 -15 25 C-25.22491454 18.85190026 -25.22491454 18.85190026 -27 14 C-27.57057837 8.76969824 -26.84948106 5.42160854 -24 1 C-17.42019894 -5.4066484 -7.30747943 -5.75740803 0 0 Z " fill="#000000" transform="translate(1695,332)"/>
<path d="M0 0 C2.64624923 2.12725119 3.97044081 3.68085369 5.05078125 6.921875 C2.74078125 8.241875 0.43078125 9.561875 -1.94921875 10.921875 C-2.65046875 10.24125 -3.35171875 9.560625 -4.07421875 8.859375 C-6.83216365 6.56897848 -6.83216365 6.56897848 -10.26171875 7.171875 C-11.14859375 7.419375 -12.03546875 7.666875 -12.94921875 7.921875 C-13.27921875 9.901875 -13.60921875 11.881875 -13.94921875 13.921875 C-10.8110794 16.74620041 -7.68110743 18.58828664 -3.88671875 20.359375 C0.91340518 22.67372046 3.64443715 25.10918679 6.05078125 29.921875 C6.60056194 34.9329908 6.61232638 38.81883993 4.30078125 43.359375 C-0.15150895 48.43003884 -3.11079241 49.73574868 -9.76171875 50.171875 C-15.28165807 50.07936205 -19.40593438 48.42558797 -23.38671875 44.546875 C-25.09113047 41.68346331 -25.32276485 40.19040337 -24.94921875 36.921875 C-22.63921875 36.261875 -20.32921875 35.601875 -17.94921875 34.921875 C-17.76359375 35.540625 -17.57796875 36.159375 -17.38671875 36.796875 C-16.00425786 39.25013753 -16.00425786 39.25013753 -12.63671875 40.359375 C-9.02648348 41.20021293 -9.02648348 41.20021293 -6.01171875 39.921875 C-3.74591829 38.0321603 -3.74591829 38.0321603 -3.01171875 35.109375 C-4.1624517 31.19688298 -5.15349738 30.83486134 -8.57421875 28.796875 C-10.35923445 27.82620968 -12.150543 26.86698756 -13.94921875 25.921875 C-18.13184705 23.36582437 -21.46857787 21.21529191 -23.94921875 16.921875 C-24.87147224 11.32617967 -24.21720272 6.6548173 -20.94921875 1.921875 C-14.95151842 -2.53795345 -6.75174937 -3.73443452 0 0 Z " fill="#000000" transform="translate(1463.94921875,330.078125)"/>
<path d="M0 0 C9.24 0 18.48 0 28 0 C28 2.31 28 4.62 28 7 C21.73 7 15.46 7 9 7 C9 10.63 9 14.26 9 18 C15.27 18 21.54 18 28 18 C28 20.64 28 23.28 28 26 C21.73 26 15.46 26 9 26 C9 30.95 9 35.9 9 41 C15.27 41 21.54 41 28 41 C28 43.31 28 45.62 28 48 C18.76 48 9.52 48 0 48 C0 32.16 0 16.32 0 0 Z " fill="#000000" transform="translate(1797,330)"/>
<path d="M0 0 C2.50627946 2.37775231 3.52065806 4.01186902 4.4375 7.3125 C2.1875 8.9375 2.1875 8.9375 -0.5625 10.3125 C-2.70626674 9.59791109 -3.97474417 8.90025583 -5.5625 7.3125 C-9.02062169 6.97911404 -9.02062169 6.97911404 -12.5625 7.3125 C-14.79747735 9.99692741 -14.79747735 9.99692741 -14.40625 12.3515625 C-13.34872056 14.80933925 -12.38020988 15.39068614 -10.0625 16.6875 C-9.34835937 17.10515625 -8.63421875 17.5228125 -7.8984375 17.953125 C-6.74214844 18.62601562 -6.74214844 18.62601562 -5.5625 19.3125 C-3.92831722 20.33970061 -2.30311571 21.38133698 -0.6875 22.4375 C0.05242187 22.91445313 0.79234375 23.39140625 1.5546875 23.8828125 C3.4375 25.3125 3.4375 25.3125 5.4375 28.3125 C6.12373474 33.84227532 6.13870021 38.77525339 3.8125 43.875 C-0.63586206 48.44042422 -4.28973629 49.50933704 -10.5625 49.75 C-15.67851421 49.61052997 -18.73717901 48.94165068 -22.5625 45.3125 C-24.74952362 42.32356771 -25.5625 41.03305546 -25.5625 37.3125 C-23.2525 36.3225 -20.9425 35.3325 -18.5625 34.3125 C-18.10875 35.116875 -17.655 35.92125 -17.1875 36.75 C-15.81524335 39.40106572 -15.81524335 39.40106572 -13.5625 40.3125 C-9.51107881 40.57110135 -8.01912331 40.61691554 -4.5625 38.3125 C-3.55954912 35.99799797 -3.40810618 34.81123267 -4.15625 32.39453125 C-6.18018783 29.39797885 -8.6510723 28.45592944 -11.875 26.875 C-16.60418157 24.55085262 -20.08527968 22.30908656 -23.5625 18.3125 C-25.14549585 13.56351245 -25.11457896 9.74790528 -23.3125 5.0625 C-18.23213628 -2.92092871 -8.15764688 -3.86414852 0 0 Z " fill="#000000" transform="translate(1618.5625,249.6875)"/>
<path d="M0 0 C2.0625 1.5625 2.0625 1.5625 4.0625 3.5625 C4.0625 4.8825 4.0625 6.2025 4.0625 7.5625 C0.5975 9.0475 0.5975 9.0475 -2.9375 10.5625 C-3.47375 9.881875 -4.01 9.20125 -4.5625 8.5 C-6.83989848 6.19610452 -6.83989848 6.19610452 -10.125 6.75 C-12.81893219 7.28290641 -12.81893219 7.28290641 -13.9375 8.5625 C-13.97842937 10.89547433 -13.97991723 13.22955225 -13.9375 15.5625 C-12.87402344 15.96855469 -12.87402344 15.96855469 -11.7890625 16.3828125 C-8.86570437 17.59220175 -6.10554509 18.95249255 -3.3125 20.4375 C-2.37148437 20.92992187 -1.43046875 21.42234375 -0.4609375 21.9296875 C2.2110126 23.65859639 3.57029704 24.75911542 5.0625 27.5625 C5.49609375 30.83984375 5.49609375 30.83984375 5.5 34.5 C5.52900391 36.30791016 5.52900391 36.30791016 5.55859375 38.15234375 C4.97696458 42.15047181 3.89456414 43.73552035 1.0625 46.5625 C-3.96194815 49.36459609 -8.29774933 50.37293661 -13.9375 49.5625 C-19.10827417 47.92508818 -22.01814995 46.16609046 -24.9375 41.5625 C-25.6875 39.25 -25.6875 39.25 -25.9375 37.5625 C-20.1875 34.5625 -20.1875 34.5625 -17.9375 34.5625 C-17.751875 35.18125 -17.56625 35.8 -17.375 36.4375 C-15.99253911 38.89076253 -15.99253911 38.89076253 -12.625 40 C-8.96617873 40.90757637 -8.96617873 40.90757637 -6 39.1875 C-5.319375 38.65125 -4.63875 38.115 -3.9375 37.5625 C-3.9458463 34.17674011 -3.9458463 34.17674011 -4.9375 30.5625 C-7.66614965 28.45240918 -7.66614965 28.45240918 -11.125 27.0625 C-21.47863967 21.93119067 -21.47863967 21.93119067 -23.9375 16.5625 C-24.93190546 11.56660699 -24.46919005 7.78095636 -22.4375 3.125 C-16.18860737 -3.28011494 -7.90405176 -3.86794022 0 0 Z " fill="#000000" transform="translate(2270.9375,330.4375)"/>
<path d="M0 0 C8.91 0 17.82 0 27 0 C27 2.31 27 4.62 27 7 C20.73 7 14.46 7 8 7 C8 10.63 8 14.26 8 18 C14.27 18 20.54 18 27 18 C27 20.64 27 23.28 27 26 C20.73 26 14.46 26 8 26 C8 30.95 8 35.9 8 41 C14.27 41 20.54 41 27 41 C27 43.31 27 45.62 27 48 C18.09 48 9.18 48 0 48 C0 32.16 0 16.32 0 0 Z " fill="#000000" transform="translate(1579,330)"/>
<path d="M0 0 C2.97 0 5.94 0 9 0 C13.37658806 9.20325078 17.29843854 18.50982648 21 28 C23.40265025 25.59734975 24.11295487 23.53540257 25.34765625 20.37109375 C25.78787109 19.25412109 26.22808594 18.13714844 26.68164062 16.98632812 C27.13732422 15.81521484 27.59300781 14.64410156 28.0625 13.4375 C28.96780376 11.12281731 29.87523913 8.80896679 30.78515625 6.49609375 C31.38662476 4.95199829 31.38662476 4.95199829 32.00024414 3.37670898 C33 1 33 1 34 0 C37.00003445 -0.14177857 39.99757235 -0.04228771 43 0 C40.96142282 6.42002383 38.59103923 12.63693797 35.98828125 18.84765625 C35.42864937 20.19361122 35.42864937 20.19361122 34.85771179 21.5667572 C33.67893059 24.39991341 32.49579446 27.23122627 31.3125 30.0625 C30.50687149 31.99662403 29.70153019 33.93086773 28.89648438 35.86523438 C26.93430557 40.57821209 24.96822208 45.28954305 23 50 C22.01 50 21.02 50 20 50 C16.92382812 42.6171875 13.84765625 35.234375 10.77148438 27.8515625 C10.43929901 27.05447876 10.10711365 26.25739502 9.76486206 25.43615723 C9.10369376 23.84902895 8.44298478 22.26170925 7.78274536 20.67419434 C6.3311006 17.18509939 4.87524696 13.69819527 3.39599609 10.22070312 C2.93918457 9.14240234 2.48237305 8.06410156 2.01171875 6.953125 C1.61815186 6.03176758 1.22458496 5.11041016 0.8190918 4.16113281 C0 2 0 2 0 0 Z " fill="#000000" transform="translate(1457,249)"/>
<path d="M0 0 C8.91 0 17.82 0 27 0 C27 2.64 27 5.28 27 8 C20.73 8 14.46 8 8 8 C8 11.63 8 15.26 8 19 C14.27 19 20.54 19 27 19 C27 21.31 27 23.62 27 26 C20.73 26 14.46 26 8 26 C8 33.59 8 41.18 8 49 C5.36 49 2.72 49 0 49 C0 32.83 0 16.66 0 0 Z " fill="#000000" transform="translate(2016,249)"/>
<path d="M0 0 C2.64 0 5.28 0 8 0 C8 13.53 8 27.06 8 41 C13.61 41 19.22 41 25 41 C25 43.64 25 46.28 25 49 C16.75 49 8.5 49 0 49 C0 32.83 0 16.66 0 0 Z " fill="#000000" transform="translate(1892,249)"/>
<path d="M0 0 C2.97 0 5.94 0 9 0 C9 15.84 9 31.68 9 48 C6.03 48 3.06 48 0 48 C0 32.16 0 16.32 0 0 Z " fill="#000000" transform="translate(1487,330)"/>
<path d="M0 0 C2.64 0 5.28 0 8 0 C8 15.84 8 31.68 8 48 C5.36 48 2.72 48 0 48 C0 32.16 0 16.32 0 0 Z " fill="#000000" transform="translate(2163,330)"/>
</svg>
