<svg id="svg" version="1.1" xmlns="http://www.w3.org/2000/svg" xmlns:xlink="http://www.w3.org/1999/xlink" width="400" height="89.28974069898534" viewBox="0, 0, 400,89.28974069898534"><g id="svgg"><path id="path0" d="M81.751 21.836 C 81.792 21.901,81.347 21.993,80.763 22.040 C 80.179 22.087,79.600 22.188,79.476 22.265 C 79.352 22.342,79.044 22.383,78.792 22.356 C 78.540 22.330,78.333 22.385,78.333 22.480 C 78.333 22.574,78.070 22.701,77.748 22.761 C 77.426 22.822,77.124 22.934,77.076 23.012 C 77.028 23.089,76.879 23.110,76.745 23.058 C 76.610 23.007,76.500 23.041,76.500 23.134 C 76.500 23.228,76.200 23.355,75.833 23.417 C 75.467 23.479,75.167 23.582,75.167 23.645 C 75.167 23.845,74.221 24.331,74.080 24.204 C 74.007 24.138,74.001 24.177,74.066 24.292 C 74.139 24.417,74.091 24.500,73.947 24.500 C 73.815 24.500,73.613 24.614,73.497 24.753 C 73.382 24.892,73.036 25.125,72.729 25.271 C 72.421 25.417,72.207 25.597,72.252 25.671 C 72.298 25.744,72.114 25.902,71.845 26.022 C 71.575 26.141,71.274 26.414,71.176 26.629 C 71.071 26.859,70.920 26.970,70.807 26.900 C 70.688 26.827,70.661 26.855,70.734 26.974 C 70.799 27.080,70.774 27.167,70.677 27.167 C 70.579 27.167,70.500 27.279,70.500 27.417 C 70.500 27.554,70.438 27.667,70.361 27.667 C 70.192 27.667,69.167 29.224,69.167 29.482 C 69.167 29.583,69.087 29.667,68.990 29.667 C 68.893 29.667,68.860 29.742,68.917 29.833 C 68.973 29.925,68.949 30.000,68.862 30.000 C 68.775 30.000,68.656 30.257,68.597 30.571 C 68.538 30.885,68.415 31.167,68.323 31.198 C 68.232 31.228,68.067 31.909,67.958 32.710 C 67.849 33.511,67.696 34.167,67.619 34.167 C 67.542 34.167,67.496 35.067,67.516 36.167 C 67.537 37.267,67.602 38.167,67.661 38.167 C 67.720 38.167,67.863 38.729,67.978 39.417 C 68.094 40.104,68.240 40.667,68.304 40.667 C 68.367 40.667,68.590 41.041,68.800 41.498 C 69.009 41.955,69.403 42.571,69.674 42.868 C 69.945 43.165,70.167 43.466,70.167 43.537 C 70.167 43.608,70.260 43.648,70.375 43.625 C 70.490 43.602,70.565 43.677,70.542 43.792 C 70.519 43.906,70.561 44.000,70.636 44.000 C 70.711 44.000,71.068 44.262,71.428 44.583 C 71.788 44.904,72.179 45.166,72.297 45.167 C 72.414 45.167,72.555 45.283,72.610 45.426 C 72.665 45.569,72.813 45.646,72.938 45.598 C 73.064 45.550,73.167 45.575,73.167 45.654 C 73.167 45.733,73.372 45.849,73.624 45.912 C 73.876 45.975,74.184 46.112,74.309 46.216 C 74.605 46.461,76.839 47.332,77.175 47.333 C 77.317 47.333,77.527 47.427,77.642 47.542 C 77.756 47.656,77.902 47.754,77.967 47.760 C 78.538 47.808,79.500 48.054,79.500 48.152 C 79.500 48.257,81.177 48.664,81.792 48.707 C 81.906 48.716,82.000 48.780,82.000 48.851 C 82.000 48.922,82.337 49.030,82.750 49.092 C 83.162 49.154,83.500 49.275,83.500 49.362 C 83.500 49.449,83.567 49.478,83.649 49.428 C 83.731 49.377,84.068 49.448,84.398 49.586 C 84.728 49.724,85.186 49.852,85.416 49.871 C 85.645 49.890,85.833 49.968,85.833 50.044 C 85.833 50.119,85.927 50.166,86.042 50.147 C 86.351 50.096,87.833 50.521,87.833 50.660 C 87.833 50.726,88.246 50.873,88.750 50.985 C 89.254 51.098,89.667 51.253,89.667 51.329 C 89.667 51.405,89.880 51.542,90.142 51.633 C 91.394 52.070,92.180 54.130,91.394 54.916 C 91.256 55.054,91.188 55.167,91.242 55.167 C 91.297 55.167,91.222 55.399,91.075 55.682 C 90.929 55.966,90.765 56.154,90.711 56.100 C 90.657 56.046,90.513 56.146,90.390 56.321 C 90.267 56.497,89.941 56.690,89.666 56.750 C 89.392 56.810,89.167 56.927,89.167 57.008 C 89.167 57.090,89.042 57.108,88.889 57.050 C 88.717 56.984,88.653 57.010,88.720 57.119 C 88.865 57.353,86.328 57.562,85.050 57.422 C 83.669 57.271,83.522 57.244,83.405 57.127 C 83.348 57.070,83.196 57.063,83.067 57.113 C 82.939 57.162,82.833 57.125,82.833 57.031 C 82.833 56.937,82.608 56.810,82.332 56.750 C 82.056 56.689,81.868 56.579,81.914 56.504 C 81.960 56.430,81.808 56.321,81.577 56.263 C 81.345 56.205,81.071 55.972,80.968 55.745 C 80.864 55.519,80.726 55.333,80.660 55.333 C 80.594 55.333,80.450 55.090,80.340 54.792 C 80.229 54.494,80.068 54.116,79.980 53.952 C 79.893 53.787,79.867 53.581,79.921 53.493 C 79.975 53.405,79.944 53.333,79.852 53.333 C 79.760 53.333,79.661 52.940,79.634 52.458 L 79.583 51.583 72.661 51.540 L 65.739 51.496 65.765 51.873 C 65.779 52.080,65.831 52.362,65.881 52.500 C 65.931 52.637,66.016 53.342,66.069 54.066 C 66.123 54.790,66.251 55.484,66.354 55.608 C 66.495 55.779,66.485 55.834,66.312 55.836 C 66.158 55.838,66.144 55.878,66.268 55.961 C 66.370 56.028,66.432 56.215,66.408 56.376 C 66.383 56.537,66.431 56.626,66.515 56.574 C 66.598 56.523,66.667 56.656,66.667 56.870 C 66.667 57.084,66.792 57.438,66.945 57.657 C 67.099 57.876,67.136 58.001,67.029 57.934 C 66.741 57.756,66.790 57.899,67.167 58.333 C 67.350 58.545,67.500 58.819,67.500 58.942 C 67.500 59.066,67.568 59.167,67.650 59.167 C 67.806 59.167,68.236 60.145,68.186 60.387 C 68.171 60.463,68.235 60.477,68.329 60.419 C 68.423 60.361,68.500 60.385,68.500 60.473 C 68.500 60.560,68.686 60.808,68.914 61.024 C 69.141 61.240,69.329 61.473,69.330 61.542 C 69.335 61.745,70.630 62.981,70.732 62.879 C 70.784 62.828,70.873 62.909,70.931 63.059 C 70.988 63.210,71.134 63.333,71.254 63.333 C 71.374 63.333,71.497 63.391,71.528 63.461 C 71.643 63.725,73.078 64.667,73.366 64.667 C 73.531 64.667,73.667 64.730,73.667 64.807 C 73.667 64.884,73.967 65.046,74.333 65.167 C 74.700 65.288,75.000 65.442,75.000 65.509 C 75.000 65.612,75.200 65.692,76.042 65.924 C 76.110 65.943,76.223 65.977,76.292 65.999 C 76.360 66.021,76.477 66.029,76.551 66.017 C 76.624 66.004,76.798 66.108,76.937 66.247 C 77.077 66.386,77.395 66.500,77.645 66.500 C 77.895 66.500,78.180 66.580,78.277 66.677 C 78.374 66.774,79.211 66.936,80.137 67.037 C 81.063 67.138,81.786 67.275,81.745 67.342 C 81.623 67.539,88.938 67.370,90.723 67.134 C 91.625 67.014,92.316 66.870,92.258 66.813 C 92.200 66.756,92.381 66.735,92.660 66.768 C 92.939 66.800,93.167 66.761,93.167 66.682 C 93.167 66.559,93.629 66.440,94.625 66.306 C 94.740 66.290,94.833 66.211,94.833 66.129 C 94.833 66.047,94.917 66.032,95.019 66.095 C 95.121 66.158,95.253 66.129,95.314 66.032 C 95.374 65.934,95.641 65.814,95.907 65.766 C 96.172 65.718,96.433 65.608,96.486 65.523 C 96.540 65.437,96.733 65.340,96.917 65.308 C 97.100 65.276,97.294 65.190,97.348 65.117 C 97.402 65.043,97.603 64.971,97.795 64.957 C 97.987 64.943,98.114 64.883,98.077 64.824 C 98.041 64.765,98.306 64.619,98.667 64.500 C 99.027 64.381,99.290 64.231,99.250 64.166 C 99.210 64.102,99.378 63.957,99.623 63.846 C 99.868 63.734,100.171 63.497,100.296 63.318 C 100.421 63.140,100.583 63.032,100.657 63.077 C 100.822 63.179,101.585 62.456,102.241 61.576 C 102.512 61.213,102.863 60.800,103.022 60.657 C 103.181 60.514,103.360 60.201,103.421 59.961 C 103.481 59.720,103.636 59.484,103.765 59.434 C 103.894 59.384,104.000 59.226,104.000 59.083 C 104.000 58.939,104.116 58.644,104.258 58.428 C 104.400 58.211,104.554 57.822,104.601 57.562 C 104.648 57.303,104.745 57.051,104.816 57.004 C 105.543 56.512,105.474 49.344,104.728 47.958 C 104.592 47.706,104.538 47.500,104.607 47.500 C 104.677 47.500,104.643 47.410,104.533 47.300 C 104.423 47.190,104.333 46.973,104.333 46.818 C 104.333 46.663,104.216 46.491,104.073 46.436 C 103.929 46.381,103.859 46.260,103.916 46.168 C 103.973 46.076,103.940 46.000,103.843 46.000 C 103.746 46.000,103.667 45.883,103.667 45.740 C 103.667 45.597,103.603 45.520,103.525 45.568 C 103.447 45.616,103.279 45.452,103.150 45.204 C 102.910 44.740,102.577 44.391,101.682 43.667 C 101.399 43.438,100.961 43.079,100.709 42.870 C 100.457 42.661,100.159 42.418,100.049 42.329 C 99.938 42.240,99.736 42.167,99.600 42.167 C 99.464 42.167,99.307 42.092,99.250 42.000 C 99.193 41.908,99.001 41.833,98.823 41.833 C 98.646 41.833,98.500 41.764,98.500 41.680 C 98.500 41.595,98.237 41.439,97.917 41.333 C 97.596 41.227,97.333 41.072,97.333 40.987 C 97.333 40.903,97.277 40.850,97.208 40.869 C 96.990 40.932,95.500 40.433,95.500 40.297 C 95.500 40.225,95.444 40.179,95.375 40.194 C 95.238 40.224,94.397 40.029,94.000 39.875 C 93.862 39.822,93.638 39.775,93.500 39.770 C 93.362 39.765,93.211 39.707,93.163 39.640 C 93.115 39.574,92.702 39.469,92.246 39.408 C 91.790 39.346,91.378 39.235,91.331 39.160 C 91.283 39.085,90.721 38.938,90.081 38.833 C 89.440 38.728,88.617 38.528,88.250 38.389 C 87.883 38.250,87.564 38.145,87.541 38.157 C 87.364 38.245,85.849 37.927,86.000 37.833 C 86.107 37.767,85.828 37.665,85.380 37.605 C 84.931 37.546,84.288 37.356,83.949 37.183 C 83.611 37.011,83.128 36.818,82.877 36.755 C 82.626 36.692,82.366 36.552,82.299 36.445 C 82.233 36.338,82.120 36.247,82.048 36.243 C 81.773 36.229,80.885 35.228,80.722 34.750 C 80.406 33.817,81.431 32.306,82.542 32.068 C 82.610 32.054,82.685 32.027,82.708 32.008 C 83.194 31.617,87.220 31.682,87.684 32.089 C 87.889 32.269,88.002 32.323,87.935 32.208 C 87.868 32.094,87.893 32.000,87.990 32.000 C 88.087 32.000,88.167 32.074,88.167 32.163 C 88.167 32.253,88.356 32.375,88.588 32.433 C 88.819 32.491,89.084 32.680,89.177 32.853 C 89.269 33.025,89.459 33.167,89.599 33.167 C 89.739 33.167,89.810 33.237,89.757 33.322 C 89.704 33.407,89.829 33.595,90.034 33.739 C 90.240 33.882,90.338 34.000,90.254 34.000 C 90.169 34.000,90.190 34.090,90.300 34.200 C 90.410 34.310,90.500 34.798,90.500 35.285 L 90.500 36.171 97.042 36.127 L 103.583 36.083 103.593 35.250 C 103.599 34.792,103.551 34.342,103.488 34.250 C 103.425 34.158,103.335 33.662,103.288 33.148 C 103.241 32.634,103.130 32.071,103.041 31.898 C 102.951 31.725,102.915 31.479,102.961 31.352 C 103.011 31.210,102.970 31.166,102.855 31.237 C 102.736 31.310,102.666 31.212,102.666 30.968 C 102.666 30.757,102.524 30.352,102.352 30.069 C 102.180 29.787,101.987 29.318,101.923 29.028 C 101.859 28.738,101.736 28.500,101.650 28.500 C 101.564 28.500,101.408 28.315,101.305 28.089 C 101.202 27.862,101.054 27.717,100.976 27.765 C 100.897 27.813,100.833 27.777,100.833 27.685 C 100.833 27.593,100.665 27.332,100.458 27.105 C 100.252 26.878,99.942 26.499,99.768 26.263 C 99.595 26.027,99.351 25.833,99.227 25.833 C 99.102 25.833,99.000 25.757,99.000 25.663 C 99.000 25.569,98.815 25.408,98.589 25.305 C 98.362 25.202,98.211 25.063,98.253 24.995 C 98.295 24.927,98.086 24.776,97.790 24.659 C 97.493 24.541,97.115 24.330,96.950 24.189 C 96.786 24.049,96.529 23.916,96.379 23.894 C 96.035 23.844,94.951 23.297,94.810 23.104 C 94.752 23.023,94.621 23.009,94.519 23.072 C 94.417 23.135,94.333 23.115,94.333 23.029 C 94.333 22.942,93.994 22.820,93.580 22.758 C 93.166 22.696,92.870 22.575,92.924 22.489 C 92.977 22.403,92.847 22.361,92.635 22.395 C 92.423 22.430,92.175 22.400,92.083 22.329 C 91.992 22.258,91.356 22.147,90.672 22.082 C 89.987 22.017,89.253 21.898,89.040 21.817 C 88.584 21.643,81.644 21.661,81.751 21.836 M146.255 21.841 C 146.297 21.909,145.732 22.019,144.999 22.083 C 144.266 22.148,143.667 22.277,143.667 22.369 C 143.667 22.460,143.545 22.489,143.396 22.432 C 143.246 22.374,143.040 22.394,142.937 22.475 C 142.834 22.557,142.469 22.674,142.125 22.736 C 141.781 22.798,141.500 22.925,141.500 23.019 C 141.500 23.113,141.352 23.142,141.167 23.083 C 140.975 23.023,140.833 23.053,140.833 23.155 C 140.833 23.253,140.740 23.336,140.625 23.339 C 140.510 23.341,140.042 23.528,139.583 23.754 C 139.125 23.979,138.656 24.164,138.542 24.165 C 138.427 24.166,138.333 24.242,138.333 24.333 C 138.333 24.425,138.240 24.500,138.125 24.501 C 138.010 24.501,137.542 24.782,137.083 25.126 C 136.625 25.469,136.046 25.855,135.797 25.983 C 135.548 26.112,135.384 26.281,135.432 26.358 C 135.480 26.436,135.438 26.500,135.338 26.500 C 135.237 26.500,134.933 26.728,134.661 27.006 C 134.389 27.284,134.167 27.455,134.167 27.385 C 134.167 27.316,134.038 27.445,133.881 27.671 C 133.724 27.898,133.422 28.221,133.211 28.390 C 133.000 28.558,132.712 28.918,132.572 29.189 C 132.314 29.687,132.159 29.896,131.250 30.973 C 130.975 31.299,130.862 31.508,131.000 31.437 C 131.222 31.323,131.222 31.333,131.000 31.529 C 130.445 32.020,128.693 36.147,128.626 37.125 C 128.618 37.240,128.554 37.333,128.483 37.333 C 128.413 37.333,128.389 37.521,128.431 37.750 C 128.473 37.979,128.443 38.167,128.364 38.167 C 128.286 38.167,128.216 38.260,128.209 38.375 C 128.153 39.288,127.932 40.781,127.833 40.917 C 127.767 41.008,127.713 42.758,127.713 44.805 C 127.714 46.885,127.776 48.429,127.855 48.305 C 127.943 48.165,127.999 48.360,128.005 48.833 C 128.010 49.246,128.091 49.921,128.185 50.333 C 128.278 50.746,128.364 51.233,128.376 51.417 C 128.387 51.600,128.450 51.788,128.515 51.833 C 128.580 51.879,128.674 52.172,128.723 52.484 C 128.772 52.795,128.885 53.095,128.973 53.150 C 129.061 53.205,129.175 53.475,129.225 53.750 C 129.377 54.582,129.531 55.000,129.686 55.000 C 129.767 55.000,129.817 55.056,129.798 55.125 C 129.778 55.194,129.856 55.419,129.970 55.625 C 130.085 55.831,130.120 56.001,130.048 56.003 C 129.976 56.004,129.995 56.060,130.092 56.128 C 130.188 56.195,130.477 56.657,130.734 57.155 C 131.471 58.583,131.561 58.727,131.958 59.116 C 132.165 59.319,132.333 59.561,132.333 59.655 C 132.333 59.749,132.514 59.944,132.734 60.088 C 132.955 60.233,133.183 60.543,133.242 60.778 C 133.301 61.014,133.397 61.159,133.454 61.102 C 133.511 61.044,133.695 61.204,133.861 61.457 C 134.028 61.710,134.165 61.857,134.166 61.785 C 134.166 61.713,134.271 61.750,134.399 61.868 C 134.527 61.987,134.601 62.134,134.563 62.197 C 134.525 62.259,134.582 62.365,134.690 62.431 C 134.812 62.506,134.840 62.479,134.766 62.359 C 134.701 62.253,134.714 62.167,134.795 62.167 C 134.877 62.167,135.041 62.349,135.161 62.572 C 135.280 62.795,135.593 63.067,135.856 63.176 C 136.118 63.285,136.333 63.442,136.333 63.524 C 136.333 63.607,136.521 63.746,136.750 63.833 C 136.979 63.920,137.167 64.081,137.167 64.190 C 137.167 64.300,137.212 64.343,137.268 64.287 C 137.324 64.231,137.643 64.356,137.977 64.565 C 138.727 65.033,140.417 65.833,140.656 65.833 C 140.754 65.833,140.833 65.916,140.833 66.018 C 140.833 66.119,140.944 66.160,141.078 66.108 C 141.213 66.057,141.532 66.123,141.787 66.256 C 142.041 66.389,142.369 66.498,142.514 66.499 C 142.659 66.500,142.830 66.552,142.894 66.616 C 143.050 66.772,143.346 66.836,144.972 67.060 C 145.735 67.165,146.317 67.294,146.265 67.346 C 146.212 67.399,147.706 67.451,149.585 67.464 C 151.663 67.477,153.000 67.423,153.000 67.326 C 153.000 67.238,153.319 67.165,153.708 67.163 C 154.098 67.161,154.717 67.080,155.083 66.983 C 155.450 66.887,155.890 66.810,156.061 66.812 C 156.232 66.814,156.551 66.698,156.769 66.555 C 156.988 66.412,157.167 66.350,157.167 66.417 C 157.167 66.484,157.363 66.409,157.604 66.252 C 157.894 66.062,157.997 66.041,157.909 66.191 C 157.836 66.315,157.939 66.274,158.138 66.099 C 158.337 65.925,158.500 65.833,158.500 65.895 C 158.500 65.957,158.675 65.893,158.888 65.753 C 159.102 65.613,159.339 65.555,159.415 65.624 C 159.491 65.693,159.505 65.666,159.446 65.562 C 159.380 65.446,159.617 65.297,160.076 65.169 C 160.481 65.055,160.854 64.854,160.905 64.721 C 160.956 64.588,161.065 64.520,161.147 64.571 C 161.229 64.622,161.392 64.546,161.511 64.404 C 161.629 64.261,161.956 64.026,162.238 63.882 C 162.520 63.737,162.933 63.423,163.157 63.184 C 163.381 62.945,163.621 62.767,163.689 62.788 C 163.757 62.809,163.860 62.678,163.918 62.497 C 163.975 62.315,164.097 62.167,164.188 62.167 C 164.279 62.167,164.299 62.253,164.234 62.359 C 164.160 62.479,164.188 62.506,164.310 62.431 C 164.418 62.365,164.469 62.251,164.424 62.179 C 164.379 62.106,164.566 61.848,164.838 61.605 C 165.110 61.363,165.333 61.085,165.333 60.989 C 165.333 60.893,165.395 60.852,165.469 60.898 C 165.544 60.944,165.736 60.761,165.896 60.491 C 166.055 60.221,166.261 60.000,166.353 60.000 C 166.444 60.000,166.476 59.930,166.424 59.845 C 166.371 59.759,166.460 59.591,166.622 59.470 C 166.784 59.349,167.047 58.969,167.206 58.625 C 167.365 58.281,167.575 58.000,167.674 58.000 C 167.772 58.000,167.810 57.931,167.758 57.847 C 167.706 57.762,167.764 57.593,167.887 57.470 C 168.010 57.347,168.076 57.144,168.033 57.017 C 167.988 56.880,168.031 56.833,168.141 56.901 C 168.257 56.972,168.395 56.735,168.516 56.257 C 168.620 55.841,168.760 55.500,168.825 55.500 C 168.891 55.500,168.953 55.406,168.962 55.292 C 168.972 55.177,169.017 54.933,169.061 54.750 C 169.105 54.567,169.147 54.281,169.154 54.115 C 169.161 53.949,169.230 53.853,169.307 53.901 C 169.496 54.017,169.880 50.962,169.808 49.917 L 169.750 49.083 163.417 49.037 C 155.870 48.982,156.445 48.896,156.182 50.121 C 156.069 50.650,155.822 51.421,155.634 51.833 C 155.446 52.246,155.281 52.659,155.267 52.751 C 155.219 53.075,154.719 53.663,154.596 53.541 C 154.528 53.472,154.487 53.492,154.506 53.583 C 154.524 53.675,154.531 53.835,154.520 53.939 C 154.488 54.246,153.321 55.298,152.764 55.524 C 152.481 55.638,152.195 55.810,152.128 55.907 C 152.051 56.017,152.003 55.989,152.000 55.833 C 151.996 55.637,151.965 55.630,151.857 55.801 C 151.525 56.324,146.833 56.362,146.833 55.841 C 146.833 55.774,146.536 55.622,146.172 55.502 C 145.809 55.382,145.550 55.220,145.599 55.142 C 145.647 55.064,145.569 55.000,145.427 55.000 C 145.284 55.000,145.167 54.921,145.167 54.823 C 145.167 54.726,145.087 54.696,144.989 54.757 C 144.891 54.817,144.770 54.710,144.720 54.519 C 144.670 54.327,144.562 54.212,144.480 54.262 C 144.398 54.313,144.280 54.218,144.218 54.052 C 144.156 53.886,143.969 53.652,143.803 53.532 C 143.636 53.412,143.500 53.215,143.500 53.094 C 143.500 52.973,143.400 52.791,143.277 52.689 C 143.154 52.587,142.959 52.184,142.842 51.794 C 142.725 51.403,142.568 51.044,142.492 50.996 C 142.416 50.949,142.318 50.724,142.275 50.496 C 142.231 50.269,142.119 49.750,142.025 49.342 C 141.931 48.935,141.887 48.547,141.928 48.482 C 141.969 48.416,141.908 48.330,141.793 48.292 C 141.528 48.204,141.487 41.057,141.750 40.869 C 141.842 40.804,141.917 40.675,141.917 40.583 C 141.917 40.163,142.405 38.167,142.508 38.167 C 142.571 38.167,142.717 37.831,142.832 37.420 C 142.947 37.009,143.145 36.587,143.271 36.483 C 143.397 36.378,143.500 36.222,143.500 36.135 C 143.500 35.878,144.359 34.830,144.500 34.916 C 144.571 34.960,144.670 34.840,144.720 34.648 C 144.770 34.456,144.891 34.349,144.989 34.410 C 145.087 34.470,145.167 34.440,145.167 34.343 C 145.167 34.246,145.292 34.167,145.444 34.167 C 145.597 34.167,145.676 34.121,145.620 34.065 C 145.416 33.861,147.084 33.179,148.217 33.004 C 149.544 32.798,151.893 33.035,152.271 33.414 C 152.395 33.538,152.732 33.691,153.020 33.754 C 153.406 33.839,153.483 33.908,153.314 34.016 C 153.130 34.132,153.141 34.162,153.368 34.164 C 153.852 34.168,155.500 35.984,155.500 36.513 C 155.500 36.667,155.606 36.880,155.736 36.988 C 155.865 37.095,156.022 37.557,156.085 38.013 C 156.277 39.411,155.859 39.333,163.202 39.333 L 169.714 39.333 169.612 38.042 C 169.510 36.745,169.465 36.463,169.288 36.000 C 169.236 35.862,169.098 35.244,168.982 34.625 C 168.867 34.006,168.720 33.500,168.656 33.500 C 168.592 33.500,168.452 33.154,168.346 32.731 C 168.239 32.308,168.043 31.853,167.909 31.719 C 167.776 31.585,167.667 31.332,167.667 31.155 C 167.667 30.978,167.592 30.833,167.500 30.833 C 167.408 30.833,167.349 30.777,167.369 30.708 C 167.404 30.582,167.075 29.921,166.813 29.594 C 166.735 29.496,166.483 29.181,166.253 28.893 C 166.022 28.604,165.833 28.304,165.832 28.226 C 165.832 28.148,165.532 27.829,165.166 27.518 C 164.800 27.207,164.500 26.855,164.500 26.736 C 164.500 26.617,164.413 26.466,164.308 26.401 C 164.176 26.320,164.161 26.356,164.259 26.516 C 164.339 26.645,164.059 26.412,163.638 26.000 C 162.731 25.111,162.333 24.783,162.333 24.922 C 162.333 24.978,162.215 24.906,162.071 24.762 C 161.927 24.618,161.698 24.500,161.562 24.500 C 161.425 24.500,161.360 24.425,161.417 24.333 C 161.473 24.242,161.402 24.167,161.258 24.167 C 161.003 24.167,160.334 23.851,160.167 23.651 C 160.121 23.596,159.868 23.499,159.605 23.434 C 159.342 23.370,159.028 23.218,158.908 23.098 C 158.787 22.978,158.309 22.829,157.844 22.767 C 157.380 22.706,157.000 22.599,157.000 22.530 C 157.000 22.461,156.869 22.397,156.708 22.387 C 155.836 22.333,153.497 21.892,153.590 21.799 C 153.649 21.740,152.006 21.697,149.938 21.704 C 147.870 21.711,146.212 21.772,146.255 21.841 M28.500 44.583 L 28.500 66.500 35.236 66.500 C 38.941 66.500,42.091 66.454,42.236 66.399 C 42.640 66.244,42.640 22.923,42.236 22.768 C 42.091 22.712,38.941 22.667,35.236 22.667 L 28.500 22.667 28.500 44.583 M206.667 23.500 C 206.557 23.958,206.402 24.333,206.323 24.333 C 206.244 24.333,206.088 24.779,205.975 25.324 C 205.863 25.869,205.718 26.282,205.654 26.242 C 205.589 26.202,205.487 26.431,205.427 26.751 C 205.367 27.071,205.253 27.333,205.174 27.333 C 205.094 27.333,205.048 27.461,205.071 27.616 C 205.094 27.772,205.013 28.091,204.891 28.325 C 204.769 28.559,204.668 28.844,204.668 28.958 C 204.667 29.073,204.592 29.167,204.500 29.167 C 204.408 29.167,204.350 29.223,204.371 29.292 C 204.431 29.492,203.968 31.000,203.846 31.000 C 203.785 31.000,203.636 31.449,203.514 31.997 C 203.392 32.546,203.225 32.953,203.142 32.902 C 203.060 32.850,203.010 32.870,203.033 32.946 C 203.104 33.181,202.627 34.737,202.403 35.000 C 202.286 35.137,202.185 35.325,202.178 35.417 C 202.136 35.994,201.941 36.667,201.815 36.667 C 201.733 36.667,201.667 36.737,201.667 36.822 C 201.667 36.908,201.579 37.189,201.472 37.447 C 201.232 38.029,201.263 37.931,201.008 38.873 C 200.891 39.307,200.741 39.629,200.675 39.589 C 200.609 39.548,200.547 39.605,200.538 39.716 C 200.528 39.826,200.487 40.029,200.448 40.167 C 200.408 40.304,200.320 40.659,200.251 40.956 C 200.179 41.268,200.053 41.449,199.951 41.387 C 199.844 41.320,199.817 41.383,199.881 41.551 C 199.938 41.700,199.920 41.863,199.841 41.912 C 199.761 41.961,199.645 42.302,199.583 42.668 C 199.521 43.035,199.402 43.293,199.319 43.241 C 199.235 43.189,199.157 43.301,199.146 43.490 C 199.134 43.679,199.111 43.890,199.095 43.958 C 199.078 44.027,199.007 44.327,198.936 44.625 C 198.865 44.923,198.750 45.167,198.680 45.167 C 198.610 45.167,198.454 45.580,198.333 46.085 C 198.212 46.591,198.012 47.087,197.890 47.189 C 197.767 47.291,197.667 47.590,197.667 47.854 C 197.667 48.118,197.584 48.333,197.482 48.333 C 197.381 48.333,197.341 48.446,197.394 48.583 C 197.446 48.721,197.425 48.833,197.347 48.833 C 197.268 48.833,197.152 49.107,197.090 49.441 C 197.027 49.775,196.879 50.145,196.761 50.263 C 196.643 50.381,196.497 50.786,196.437 51.163 C 196.364 51.614,196.262 51.809,196.138 51.732 C 196.022 51.660,195.994 51.690,196.067 51.808 C 196.133 51.913,196.127 52.094,196.054 52.208 C 195.981 52.323,195.915 52.454,195.906 52.500 C 195.742 53.384,195.604 53.833,195.496 53.833 C 195.423 53.833,195.312 54.135,195.249 54.503 C 195.187 54.872,195.045 55.266,194.934 55.378 C 194.822 55.491,194.630 55.958,194.506 56.417 C 194.383 56.875,194.229 57.325,194.164 57.417 C 194.099 57.508,193.992 57.808,193.926 58.082 C 193.861 58.356,193.742 58.620,193.664 58.669 C 193.585 58.717,193.485 58.943,193.442 59.170 C 193.348 59.665,193.210 60.071,192.897 60.778 C 192.769 61.069,192.617 61.538,192.561 61.820 C 192.505 62.102,192.409 62.333,192.349 62.333 C 192.289 62.333,192.137 62.690,192.012 63.125 C 191.887 63.560,191.705 64.067,191.607 64.250 C 191.509 64.433,191.422 64.621,191.413 64.667 C 191.299 65.287,191.116 65.833,191.022 65.833 C 190.957 65.833,190.893 65.983,190.879 66.167 C 190.854 66.495,190.957 66.500,197.829 66.500 L 204.804 66.500 204.917 65.834 C 204.978 65.468,205.091 65.130,205.167 65.083 C 205.242 65.037,205.357 64.680,205.422 64.291 C 205.487 63.902,205.637 63.393,205.755 63.161 C 205.874 62.929,206.024 62.460,206.088 62.119 C 206.151 61.779,206.266 61.500,206.342 61.500 C 206.419 61.500,206.452 61.350,206.417 61.167 C 206.381 60.983,206.423 60.833,206.510 60.833 C 206.596 60.833,206.667 60.683,206.667 60.500 C 206.667 60.172,206.778 60.167,213.417 60.167 C 220.056 60.167,220.167 60.172,220.167 60.500 C 220.167 60.683,220.242 60.833,220.333 60.833 C 220.425 60.833,220.487 60.890,220.471 60.958 C 220.454 61.027,220.526 61.383,220.629 61.750 C 220.733 62.117,220.855 62.604,220.902 62.833 C 220.948 63.063,221.098 63.550,221.236 63.917 C 221.373 64.283,221.489 64.752,221.493 64.958 C 221.497 65.165,221.567 65.333,221.648 65.333 C 221.730 65.333,221.845 65.596,221.906 65.917 L 222.015 66.500 229.112 66.500 L 236.209 66.500 236.097 65.797 C 236.035 65.410,235.926 65.054,235.855 65.005 C 235.704 64.902,235.239 63.315,235.300 63.113 C 235.323 63.037,235.273 63.018,235.189 63.069 C 235.105 63.121,234.984 62.883,234.920 62.540 C 234.856 62.197,234.729 61.826,234.637 61.716 C 234.546 61.605,234.527 61.418,234.596 61.299 C 234.667 61.176,234.656 61.142,234.571 61.219 C 234.488 61.295,234.335 61.039,234.223 60.636 C 234.035 59.959,233.616 58.724,233.384 58.167 C 233.327 58.029,233.292 57.860,233.307 57.792 C 233.321 57.723,233.265 57.667,233.181 57.667 C 233.098 57.667,232.979 57.366,232.917 56.999 C 232.855 56.632,232.745 56.368,232.673 56.413 C 232.601 56.457,232.493 56.190,232.434 55.819 C 232.374 55.447,232.219 54.980,232.089 54.780 C 231.959 54.580,231.816 54.209,231.770 53.955 C 231.725 53.701,231.576 53.270,231.441 52.998 C 231.305 52.726,231.144 52.278,231.084 52.002 C 231.023 51.726,230.886 51.499,230.778 51.497 C 230.649 51.496,230.658 51.448,230.804 51.355 C 230.986 51.240,230.983 51.174,230.790 50.981 C 230.662 50.852,230.500 50.522,230.432 50.248 C 230.364 49.974,230.207 49.525,230.085 49.250 C 229.737 48.470,229.428 47.438,229.474 47.208 C 229.496 47.094,229.436 47.000,229.341 47.000 C 229.245 47.000,229.166 46.906,229.166 46.792 C 229.165 46.677,229.060 46.382,228.931 46.136 C 228.803 45.890,228.646 45.440,228.583 45.136 C 228.519 44.832,228.374 44.433,228.260 44.250 C 228.146 44.067,227.991 43.692,227.915 43.417 C 227.839 43.142,227.762 42.860,227.743 42.792 C 227.724 42.723,227.699 42.512,227.688 42.323 C 227.676 42.135,227.597 42.023,227.512 42.076 C 227.427 42.128,227.272 41.758,227.167 41.252 C 227.062 40.747,226.915 40.333,226.840 40.333 C 226.766 40.333,226.666 40.127,226.618 39.875 C 226.416 38.801,226.305 38.419,226.172 38.337 C 226.094 38.289,225.978 37.967,225.913 37.623 C 225.848 37.278,225.728 36.954,225.645 36.903 C 225.562 36.852,225.545 36.729,225.606 36.629 C 225.673 36.521,225.641 36.496,225.526 36.567 C 225.400 36.645,225.333 36.542,225.333 36.270 C 225.333 36.041,225.253 35.803,225.155 35.743 C 225.057 35.682,225.016 35.533,225.063 35.411 C 225.110 35.288,225.076 35.164,224.989 35.135 C 224.902 35.106,224.800 34.932,224.764 34.749 C 224.606 33.953,224.456 33.500,224.350 33.500 C 224.224 33.500,223.761 32.039,223.782 31.710 C 223.790 31.597,223.739 31.539,223.670 31.581 C 223.601 31.624,223.449 31.211,223.333 30.663 C 223.216 30.115,223.071 29.667,223.011 29.667 C 222.857 29.667,222.500 28.638,222.500 28.197 C 222.500 27.997,222.435 27.833,222.355 27.833 C 222.209 27.833,221.726 26.358,221.796 26.125 C 221.816 26.056,221.758 26.000,221.667 26.000 C 221.575 26.000,221.500 25.855,221.500 25.679 C 221.500 25.502,221.397 25.254,221.271 25.128 C 221.145 25.002,220.955 24.495,220.849 24.002 C 220.541 22.563,221.104 22.667,213.580 22.667 L 206.867 22.667 206.667 23.500 M258.500 44.583 L 258.500 66.500 275.083 66.500 L 291.667 66.500 291.667 60.672 L 291.667 54.844 282.136 54.836 C 276.895 54.832,272.583 54.805,272.555 54.777 C 272.526 54.749,272.501 47.512,272.498 38.696 L 272.493 22.667 265.497 22.667 L 258.500 22.667 258.500 44.583 M213.999 39.000 C 214.078 39.000,214.234 39.568,214.346 40.262 C 214.475 41.064,214.600 41.443,214.689 41.303 C 214.786 41.150,214.829 41.203,214.831 41.481 C 214.834 41.924,215.160 43.159,215.343 43.417 C 215.408 43.508,215.557 44.127,215.674 44.792 C 215.791 45.456,215.943 46.000,216.012 46.000 C 216.135 46.000,216.413 47.286,216.309 47.373 C 216.280 47.397,216.386 47.602,216.545 47.829 C 216.703 48.055,216.833 48.407,216.833 48.610 C 216.833 48.812,216.920 49.189,217.025 49.447 C 217.486 50.573,217.726 50.500,213.582 50.500 C 209.567 50.500,209.612 50.511,210.056 49.661 C 210.177 49.428,210.265 49.075,210.250 48.877 C 210.235 48.678,210.276 48.548,210.341 48.588 C 210.406 48.628,210.506 48.362,210.564 47.997 C 210.623 47.632,210.753 47.333,210.855 47.333 C 210.958 47.333,211.000 47.184,210.950 46.993 C 210.901 46.805,210.967 46.449,211.096 46.201 C 211.225 45.953,211.332 45.577,211.332 45.365 C 211.333 45.154,211.400 45.022,211.482 45.072 C 211.564 45.123,211.668 44.921,211.713 44.624 C 211.785 44.153,211.888 43.706,212.067 43.083 C 212.094 42.992,212.192 42.729,212.286 42.500 C 212.381 42.271,212.514 41.821,212.582 41.500 C 212.651 41.179,212.800 40.729,212.914 40.500 C 213.027 40.271,213.172 39.750,213.234 39.342 C 213.381 38.385,213.726 37.908,213.803 38.555 C 213.832 38.800,213.920 39.000,213.999 39.000 M314.947 54.942 C 314.903 54.985,314.635 55.028,314.350 55.036 C 314.066 55.044,313.833 55.108,313.833 55.179 C 313.833 55.250,313.571 55.394,313.250 55.500 C 312.929 55.606,312.667 55.766,312.667 55.856 C 312.667 55.946,312.600 55.978,312.517 55.927 C 312.383 55.844,312.135 56.212,312.098 56.548 C 312.090 56.620,311.979 56.743,311.851 56.822 C 311.480 57.052,311.509 59.315,311.885 59.526 C 312.044 59.615,312.130 59.758,312.077 59.844 C 312.024 59.930,312.057 60.000,312.150 60.000 C 312.244 60.000,312.455 60.141,312.619 60.314 C 312.782 60.487,313.235 60.681,313.625 60.746 C 314.015 60.810,314.333 60.916,314.333 60.982 C 314.333 61.048,314.893 61.196,315.578 61.311 C 316.815 61.519,317.833 61.902,317.833 62.159 C 317.833 62.234,317.987 62.335,318.176 62.384 C 318.687 62.518,318.602 63.975,318.055 64.462 C 317.841 64.653,317.666 64.758,317.664 64.696 C 317.663 64.634,317.590 64.696,317.503 64.833 C 317.315 65.131,314.236 65.201,314.035 64.913 C 313.970 64.819,313.717 64.615,313.473 64.460 C 313.217 64.297,312.974 63.947,312.899 63.631 C 312.827 63.330,312.755 63.027,312.739 62.958 C 312.722 62.890,312.699 62.721,312.688 62.583 C 312.673 62.406,312.472 62.333,312.000 62.333 L 311.333 62.333 311.333 63.058 C 311.333 64.186,311.823 65.333,312.304 65.333 C 312.392 65.333,312.508 65.446,312.560 65.583 C 312.613 65.721,312.771 65.833,312.911 65.833 C 313.052 65.833,313.167 65.908,313.167 66.000 C 313.167 66.092,313.223 66.153,313.292 66.137 C 313.360 66.121,313.754 66.205,314.167 66.323 C 315.032 66.571,317.874 66.462,317.969 66.177 C 318.001 66.080,318.124 66.000,318.241 66.000 C 318.442 66.000,319.708 65.083,319.664 64.969 C 319.652 64.940,319.724 64.706,319.822 64.447 C 320.211 63.422,319.890 61.427,319.305 61.241 C 319.135 61.187,319.031 61.084,319.075 61.013 C 319.120 60.941,318.858 60.794,318.495 60.685 C 318.131 60.576,317.833 60.411,317.833 60.319 C 317.833 60.227,317.740 60.170,317.625 60.193 C 317.245 60.268,315.167 59.798,315.167 59.638 C 315.167 59.551,315.100 59.521,315.019 59.572 C 314.479 59.906,313.000 58.844,313.000 58.122 C 313.000 57.575,313.571 56.667,313.914 56.667 C 314.038 56.667,314.167 56.582,314.202 56.479 C 314.337 56.071,316.596 56.209,317.070 56.654 C 317.306 56.876,317.501 56.989,317.502 56.904 C 317.503 56.819,317.691 57.076,317.919 57.475 C 318.147 57.874,318.333 58.306,318.333 58.434 C 318.333 58.594,318.540 58.667,319.000 58.667 L 319.667 58.667 319.667 57.907 C 319.667 57.443,319.602 57.187,319.500 57.250 C 319.408 57.307,319.333 57.195,319.333 57.001 C 319.333 56.558,318.232 55.517,317.628 55.389 C 317.377 55.336,317.201 55.246,317.236 55.188 C 317.272 55.130,317.031 55.063,316.701 55.039 C 316.371 55.015,315.860 54.965,315.564 54.928 C 315.269 54.892,314.991 54.898,314.947 54.942 M306.417 55.168 C 304.308 55.222,302.564 55.281,302.539 55.300 C 302.515 55.318,302.515 57.790,302.539 60.792 L 302.583 66.250 306.458 66.295 L 310.333 66.339 310.333 65.670 L 310.333 65.000 307.167 65.000 L 304.000 65.000 304.000 63.083 L 304.000 61.167 307.000 61.167 L 310.000 61.167 310.000 60.500 C 310.000 60.133,309.944 59.842,309.875 59.853 C 309.806 59.864,308.456 59.864,306.875 59.853 L 304.000 59.833 304.000 58.083 L 304.000 56.333 307.167 56.333 L 310.333 56.333 310.333 55.667 C 310.333 55.300,310.315 55.016,310.292 55.036 C 310.269 55.055,308.525 55.115,306.417 55.168 M324.917 55.168 C 322.533 55.221,320.565 55.280,320.542 55.299 C 320.519 55.318,320.500 55.558,320.500 55.833 L 320.500 56.333 322.333 56.333 L 324.167 56.333 324.167 61.070 C 324.167 66.490,324.141 66.333,325.018 66.333 L 325.667 66.333 325.667 61.333 L 325.667 56.333 327.500 56.333 L 329.333 56.333 329.333 55.667 C 329.333 55.300,329.315 55.016,329.292 55.036 C 329.269 55.056,327.300 55.115,324.917 55.168 M366.833 55.166 C 366.604 55.243,366.135 55.353,365.792 55.411 C 365.448 55.468,365.167 55.584,365.167 55.669 C 365.167 55.754,365.054 55.780,364.917 55.727 C 364.779 55.674,364.666 55.695,364.666 55.774 C 364.666 55.852,364.441 56.179,364.167 56.500 C 363.892 56.821,363.667 57.177,363.667 57.292 C 363.667 57.406,363.610 57.500,363.542 57.500 C 363.401 57.501,363.274 58.415,363.276 59.417 C 363.278 60.347,363.969 61.791,364.533 62.041 C 364.836 62.175,364.918 62.282,364.783 62.368 C 364.639 62.459,364.653 62.499,364.833 62.510 C 365.224 62.534,365.667 62.630,365.971 62.757 C 366.362 62.920,367.183 62.942,367.276 62.792 C 367.318 62.723,367.480 62.666,367.635 62.666 C 367.790 62.665,368.123 62.557,368.375 62.426 C 368.800 62.204,368.833 62.210,368.833 62.510 C 368.833 62.688,368.746 62.833,368.639 62.833 C 368.532 62.833,368.491 62.880,368.549 62.938 C 368.714 63.102,368.200 63.971,367.772 64.251 C 367.345 64.531,366.638 64.497,366.536 64.192 C 366.501 64.085,366.412 64.035,366.338 64.080 C 366.265 64.125,366.113 63.938,365.999 63.665 C 365.798 63.180,365.763 63.167,364.641 63.167 C 363.525 63.167,362.954 63.472,363.441 63.808 C 363.527 63.868,363.700 64.235,363.825 64.625 C 363.951 65.015,364.119 65.333,364.199 65.333 C 364.279 65.333,364.578 65.573,364.864 65.865 C 365.696 66.716,368.273 66.697,369.229 65.833 C 369.585 65.512,369.936 65.267,370.011 65.288 C 370.086 65.310,370.240 65.070,370.354 64.756 C 370.468 64.441,370.622 64.222,370.697 64.269 C 370.772 64.315,370.839 64.255,370.846 64.135 C 370.853 64.015,370.895 63.767,370.939 63.583 C 370.983 63.400,371.028 63.156,371.038 63.042 C 371.047 62.927,371.110 62.833,371.177 62.833 C 371.244 62.833,371.299 62.665,371.301 62.458 C 371.303 62.252,371.359 61.615,371.425 61.042 C 371.494 60.454,371.482 60.000,371.398 60.000 C 371.317 60.000,371.252 59.719,371.255 59.375 C 371.257 59.031,371.222 58.675,371.176 58.583 C 371.130 58.492,371.068 58.229,371.038 58.000 C 371.009 57.771,370.894 57.508,370.782 57.417 C 370.671 57.325,370.489 57.046,370.379 56.797 C 370.091 56.146,368.901 55.333,368.235 55.333 C 367.933 55.333,367.640 55.258,367.583 55.167 C 367.465 54.975,367.402 54.975,366.833 55.166 M340.915 55.575 C 340.870 55.717,340.798 55.947,340.755 56.085 C 340.711 56.224,340.692 56.372,340.713 56.415 C 340.760 56.515,340.133 56.959,339.935 56.966 C 339.854 56.969,339.738 57.052,339.677 57.150 C 339.577 57.312,338.898 57.459,338.117 57.489 C 337.858 57.498,337.824 57.631,337.867 58.458 L 337.917 59.417 339.292 59.465 L 340.667 59.513 340.667 62.931 L 340.667 66.349 341.792 66.299 L 342.917 66.250 342.917 60.833 L 342.917 55.417 341.956 55.367 C 341.205 55.327,340.978 55.373,340.915 55.575 M346.000 56.548 L 346.000 57.750 348.266 57.692 C 349.927 57.649,350.584 57.689,350.725 57.841 C 350.871 57.999,350.867 58.021,350.708 57.931 C 350.594 57.867,350.500 57.882,350.500 57.965 C 350.500 58.048,350.350 58.289,350.167 58.500 C 349.983 58.711,349.833 58.976,349.833 59.088 C 349.833 59.201,349.733 59.376,349.611 59.477 C 349.488 59.579,349.290 59.960,349.169 60.325 C 349.049 60.690,348.886 60.950,348.808 60.901 C 348.730 60.853,348.657 60.931,348.646 61.073 C 348.607 61.552,348.584 61.638,348.458 61.764 C 348.390 61.833,348.333 62.020,348.333 62.181 C 348.333 62.341,348.240 62.510,348.125 62.556 C 347.959 62.623,347.960 62.643,348.126 62.654 C 348.274 62.663,348.290 62.753,348.180 62.958 C 347.868 63.543,347.580 64.768,347.582 65.500 L 347.583 66.250 348.958 66.298 L 350.333 66.347 350.333 65.580 C 350.333 64.435,350.674 62.463,350.936 62.089 C 351.063 61.907,351.167 61.659,351.167 61.537 C 351.167 61.415,351.331 60.963,351.533 60.533 C 351.734 60.102,351.882 59.688,351.862 59.613 C 351.842 59.537,351.894 59.518,351.978 59.570 C 352.106 59.649,352.263 59.445,352.417 59.000 C 352.562 58.578,352.723 58.348,352.826 58.412 C 352.895 58.455,353.038 58.300,353.143 58.069 C 353.248 57.837,353.402 57.689,353.484 57.740 C 353.567 57.791,353.633 57.279,353.633 56.589 L 353.633 55.346 349.817 55.346 L 346.000 55.346 346.000 56.548 M355.917 55.461 C 355.825 55.528,355.745 55.658,355.740 55.750 C 355.683 56.692,355.423 58.000,355.292 58.000 C 355.202 58.000,355.169 58.158,355.220 58.351 C 355.270 58.544,355.252 58.863,355.179 59.060 C 355.106 59.256,354.995 59.885,354.932 60.458 L 354.817 61.500 356.014 61.500 C 357.045 61.500,357.256 61.448,357.533 61.128 C 357.932 60.668,359.122 60.628,359.367 61.066 C 359.451 61.217,359.589 61.298,359.672 61.247 C 359.840 61.143,360.056 61.846,360.056 62.500 C 360.056 63.228,359.837 63.833,359.575 63.833 C 359.436 63.833,359.280 63.946,359.227 64.083 C 358.971 64.749,357.217 63.980,356.993 63.104 C 356.913 62.790,356.765 62.744,355.701 62.701 L 354.499 62.652 354.535 63.480 C 354.555 63.936,354.630 64.272,354.702 64.228 C 354.774 64.183,354.833 64.249,354.833 64.374 C 354.833 64.624,355.609 65.741,355.799 65.764 C 355.966 65.785,356.513 65.997,356.986 66.223 C 357.610 66.524,360.078 66.463,360.447 66.139 C 360.614 65.993,360.920 65.821,361.127 65.758 C 361.335 65.694,361.469 65.584,361.425 65.513 C 361.381 65.442,361.511 65.227,361.714 65.037 C 362.533 64.267,362.594 64.064,362.553 62.250 C 362.517 60.691,362.488 60.488,362.317 60.593 C 362.247 60.636,362.096 60.412,361.981 60.095 C 361.867 59.777,361.719 59.551,361.654 59.591 C 361.588 59.632,361.492 59.553,361.439 59.416 C 361.387 59.279,361.198 59.167,361.019 59.167 C 360.841 59.167,360.668 59.088,360.636 58.992 C 360.529 58.669,358.804 58.605,358.103 58.898 L 357.458 59.167 357.562 58.646 C 357.620 58.359,357.667 57.984,357.667 57.813 C 357.667 57.522,357.828 57.500,359.917 57.500 L 362.167 57.500 362.167 56.617 C 362.167 56.131,362.077 55.643,361.967 55.533 C 361.743 55.310,356.212 55.244,355.917 55.461 M368.009 57.793 C 368.776 58.478,368.745 60.099,367.956 60.526 C 366.409 61.363,365.078 59.229,366.287 57.850 C 366.849 57.210,367.338 57.194,368.009 57.793 M329.167 65.333 L 329.167 66.333 329.917 66.333 L 330.667 66.333 330.667 65.333 L 330.667 64.333 329.917 64.333 L 329.167 64.333 329.167 65.333 " stroke="none" fill="#941c3c" fill-rule="evenodd"></path><path id="path1" d="M164.500 26.804 C 164.500 26.879,164.688 27.103,164.917 27.302 C 165.146 27.501,165.333 27.603,165.333 27.529 C 165.333 27.454,165.146 27.230,164.917 27.031 C 164.688 26.832,164.500 26.730,164.500 26.804 M132.109 29.638 C 131.957 29.806,131.833 30.005,131.833 30.080 C 131.833 30.156,131.983 30.045,132.167 29.833 C 132.350 29.622,132.500 29.423,132.500 29.391 C 132.500 29.266,132.373 29.347,132.109 29.638 M149.127 32.951 C 149.334 32.991,149.634 32.990,149.794 32.948 C 149.953 32.906,149.783 32.874,149.417 32.875 C 149.050 32.877,148.920 32.911,149.127 32.951 M153.742 54.696 C 153.190 55.280,153.168 55.327,153.604 54.988 C 154.055 54.638,154.603 54.000,154.452 54.000 C 154.424 54.000,154.105 54.313,153.742 54.696 M302.609 55.125 C 302.566 55.194,303.818 55.230,305.391 55.206 C 310.074 55.134,310.494 55.066,306.468 55.032 C 304.388 55.014,302.651 55.056,302.609 55.125 M320.609 55.125 C 320.566 55.194,322.005 55.230,323.807 55.207 C 329.102 55.136,329.559 55.068,324.968 55.033 C 322.613 55.015,320.651 55.056,320.609 55.125 M149.127 56.285 C 149.334 56.324,149.634 56.323,149.794 56.281 C 149.953 56.239,149.783 56.207,149.417 56.209 C 149.050 56.211,148.920 56.245,149.127 56.285 M347.167 57.777 C 348.985 57.899,350.796 57.906,350.725 57.792 C 350.682 57.723,349.695 57.680,348.532 57.697 C 347.368 57.713,346.754 57.749,347.167 57.777 M164.369 62.016 C 164.074 62.292,163.833 62.565,163.833 62.623 C 163.833 62.681,164.077 62.509,164.374 62.240 C 164.672 61.970,164.947 61.731,164.985 61.708 C 165.024 61.685,165.022 61.633,164.980 61.591 C 164.939 61.550,164.664 61.741,164.369 62.016 " stroke="none" fill="#981c3c" fill-rule="evenodd"></path><path id="path2" d="M164.500 26.804 C 164.500 26.879,164.688 27.103,164.917 27.302 C 165.146 27.501,165.333 27.603,165.333 27.529 C 165.333 27.454,165.146 27.230,164.917 27.031 C 164.688 26.832,164.500 26.730,164.500 26.804 M132.109 29.638 C 131.957 29.806,131.833 30.005,131.833 30.080 C 131.833 30.156,131.983 30.045,132.167 29.833 C 132.350 29.622,132.500 29.423,132.500 29.391 C 132.500 29.266,132.373 29.347,132.109 29.638 M149.127 32.951 C 149.334 32.991,149.634 32.990,149.794 32.948 C 149.953 32.906,149.783 32.874,149.417 32.875 C 149.050 32.877,148.920 32.911,149.127 32.951 M153.742 54.696 C 153.190 55.280,153.168 55.327,153.604 54.988 C 154.055 54.638,154.603 54.000,154.452 54.000 C 154.424 54.000,154.105 54.313,153.742 54.696 M302.609 55.125 C 302.566 55.194,303.818 55.230,305.391 55.206 C 310.074 55.134,310.494 55.066,306.468 55.032 C 304.388 55.014,302.651 55.056,302.609 55.125 M320.609 55.125 C 320.566 55.194,322.005 55.230,323.807 55.207 C 329.102 55.136,329.559 55.068,324.968 55.033 C 322.613 55.015,320.651 55.056,320.609 55.125 M149.127 56.285 C 149.334 56.324,149.634 56.323,149.794 56.281 C 149.953 56.239,149.783 56.207,149.417 56.209 C 149.050 56.211,148.920 56.245,149.127 56.285 M347.167 57.777 C 348.985 57.899,350.796 57.906,350.725 57.792 C 350.682 57.723,349.695 57.680,348.532 57.697 C 347.368 57.713,346.754 57.749,347.167 57.777 M164.369 62.016 C 164.074 62.292,163.833 62.565,163.833 62.623 C 163.833 62.681,164.077 62.509,164.374 62.240 C 164.672 61.970,164.947 61.731,164.985 61.708 C 165.024 61.685,165.022 61.633,164.980 61.591 C 164.939 61.550,164.664 61.741,164.369 62.016 " stroke="none" fill="#981c3c" fill-rule="evenodd"></path><path id="path3" d="M164.500 26.804 C 164.500 26.879,164.688 27.103,164.917 27.302 C 165.146 27.501,165.333 27.603,165.333 27.529 C 165.333 27.454,165.146 27.230,164.917 27.031 C 164.688 26.832,164.500 26.730,164.500 26.804 M132.109 29.638 C 131.957 29.806,131.833 30.005,131.833 30.080 C 131.833 30.156,131.983 30.045,132.167 29.833 C 132.350 29.622,132.500 29.423,132.500 29.391 C 132.500 29.266,132.373 29.347,132.109 29.638 M149.127 32.951 C 149.334 32.991,149.634 32.990,149.794 32.948 C 149.953 32.906,149.783 32.874,149.417 32.875 C 149.050 32.877,148.920 32.911,149.127 32.951 M153.742 54.696 C 153.190 55.280,153.168 55.327,153.604 54.988 C 154.055 54.638,154.603 54.000,154.452 54.000 C 154.424 54.000,154.105 54.313,153.742 54.696 M302.609 55.125 C 302.566 55.194,303.818 55.230,305.391 55.206 C 310.074 55.134,310.494 55.066,306.468 55.032 C 304.388 55.014,302.651 55.056,302.609 55.125 M320.609 55.125 C 320.566 55.194,322.005 55.230,323.807 55.207 C 329.102 55.136,329.559 55.068,324.968 55.033 C 322.613 55.015,320.651 55.056,320.609 55.125 M149.127 56.285 C 149.334 56.324,149.634 56.323,149.794 56.281 C 149.953 56.239,149.783 56.207,149.417 56.209 C 149.050 56.211,148.920 56.245,149.127 56.285 M347.167 57.777 C 348.985 57.899,350.796 57.906,350.725 57.792 C 350.682 57.723,349.695 57.680,348.532 57.697 C 347.368 57.713,346.754 57.749,347.167 57.777 M164.369 62.016 C 164.074 62.292,163.833 62.565,163.833 62.623 C 163.833 62.681,164.077 62.509,164.374 62.240 C 164.672 61.970,164.947 61.731,164.985 61.708 C 165.024 61.685,165.022 61.633,164.980 61.591 C 164.939 61.550,164.664 61.741,164.369 62.016 " stroke="none" fill="#981c3c" fill-rule="evenodd"></path><path id="path4" d="M164.500 26.804 C 164.500 26.879,164.688 27.103,164.917 27.302 C 165.146 27.501,165.333 27.603,165.333 27.529 C 165.333 27.454,165.146 27.230,164.917 27.031 C 164.688 26.832,164.500 26.730,164.500 26.804 M132.109 29.638 C 131.957 29.806,131.833 30.005,131.833 30.080 C 131.833 30.156,131.983 30.045,132.167 29.833 C 132.350 29.622,132.500 29.423,132.500 29.391 C 132.500 29.266,132.373 29.347,132.109 29.638 M149.127 32.951 C 149.334 32.991,149.634 32.990,149.794 32.948 C 149.953 32.906,149.783 32.874,149.417 32.875 C 149.050 32.877,148.920 32.911,149.127 32.951 M153.742 54.696 C 153.190 55.280,153.168 55.327,153.604 54.988 C 154.055 54.638,154.603 54.000,154.452 54.000 C 154.424 54.000,154.105 54.313,153.742 54.696 M302.609 55.125 C 302.566 55.194,303.818 55.230,305.391 55.206 C 310.074 55.134,310.494 55.066,306.468 55.032 C 304.388 55.014,302.651 55.056,302.609 55.125 M320.609 55.125 C 320.566 55.194,322.005 55.230,323.807 55.207 C 329.102 55.136,329.559 55.068,324.968 55.033 C 322.613 55.015,320.651 55.056,320.609 55.125 M149.127 56.285 C 149.334 56.324,149.634 56.323,149.794 56.281 C 149.953 56.239,149.783 56.207,149.417 56.209 C 149.050 56.211,148.920 56.245,149.127 56.285 M347.167 57.777 C 348.985 57.899,350.796 57.906,350.725 57.792 C 350.682 57.723,349.695 57.680,348.532 57.697 C 347.368 57.713,346.754 57.749,347.167 57.777 M164.369 62.016 C 164.074 62.292,163.833 62.565,163.833 62.623 C 163.833 62.681,164.077 62.509,164.374 62.240 C 164.672 61.970,164.947 61.731,164.985 61.708 C 165.024 61.685,165.022 61.633,164.980 61.591 C 164.939 61.550,164.664 61.741,164.369 62.016 " stroke="none" fill="#981c3c" fill-rule="evenodd"></path></g></svg>